<svg xmlns="http://www.w3.org/2000/svg" class="icon" viewBox="0 0 300 300" data-v-fde0c5aa=""><!----><defs data-v-fde0c5aa=""><!----></defs><rect class="logo-background-square" fill="transparent" x="0" y="0" width="300px" height="300px" data-v-fde0c5aa="" /><!----><defs data-v-fde0c5aa=""><linearGradient id="d76739ee-68fa-4ede-a5da-fb303b3cd99b" gradientTransform="rotate(25)" x1="0%" y1="0%" x2="100%" y2="0%" data-v-fde0c5aa=""><stop stop-color="rgb(142, 54, 222)" stop-opacity="1" offset="0%" data-v-fde0c5aa="" /><stop stop-color="rgb(247, 207, 245)" stop-opacity="1" offset="100%" data-v-fde0c5aa="" /></linearGradient></defs><g id="9bb25a49-02f0-434c-b4cd-90811853d826" fill="url(#d76739ee-68fa-4ede-a5da-fb303b3cd99b)" stroke="none" transform="matrix(2.68293, 0, 0, 2.68293, 15.8537, 15.8537)" data-v-fde0c5aa=""><path color="rgb(0, 0, 0)" overflow="visible" style="text-indent:0;text-transform:none;block-progression:tb" d="M 16 11 c -3.826 0 -7 3.174 -7 7 v 16 c 0 1.475 0.482 2.863 1.281 4 A 6.967 6.967 0 0 0 9 42 v 16 c 0 1.475 0.482 2.863 1.281 4 A 6.967 6.967 0 0 0 9 66 v 16 c 0 3.826 3.174 7 7 7 h 68 c 3.826 0 7 -3.174 7 -7 V 66 a 6.967 6.967 0 0 0 -1.281 -4 A 6.967 6.967 0 0 0 91 58 V 42 a 6.967 6.967 0 0 0 -1.281 -4 A 6.967 6.967 0 0 0 91 34 V 18 c 0 -3.826 -3.174 -7 -7 -7 H 16 Z m 0 6 h 68 c 0.606 0 1 0.394 1 1 v 16 c 0 0.606 -0.394 1 -1 1 H 16 c -0.606 0 -1 -0.394 -1 -1 V 18 c 0 -0.606 0.394 -1 1 -1 Z m 8 3 c -3.278 0 -6 2.722 -6 6 s 2.722 6 6 6 s 6 -2.722 6 -6 s -2.722 -6 -6 -6 Z m 15 0 c -3.278 0 -6 2.722 -6 6 s 2.722 6 6 6 s 6 -2.722 6 -6 s -2.722 -6 -6 -6 Z m 19 3 a 3 3 0 1 0 0 6 h 16 a 3 3 0 0 0 0 -6 H 58 Z M 16 41 h 68 c 0.606 0 1 0.394 1 1 v 16 c 0 0.606 -0.394 1 -1 1 H 16 c -0.606 0 -1 -0.394 -1 -1 V 42 c 0 -0.606 0.394 -1 1 -1 Z m 8 3 c -3.278 0 -6 2.722 -6 6 s 2.722 6 6 6 s 6 -2.722 6 -6 s -2.722 -6 -6 -6 Z m 15 0 c -3.278 0 -6 2.722 -6 6 s 2.722 6 6 6 s 6 -2.722 6 -6 s -2.722 -6 -6 -6 Z m 19 3 a 3 3 0 1 0 0 6 h 16 a 3 3 0 0 0 0 -6 H 58 Z M 16 65 h 68 c 0.606 0 1 0.394 1 1 v 16 c 0 0.606 -0.394 1 -1 1 H 16 c -0.606 0 -1 -0.394 -1 -1 V 66 c 0 -0.606 0.394 -1 1 -1 Z m 8 3 c -3.278 0 -6 2.722 -6 6 s 2.722 6 6 6 s 6 -2.722 6 -6 s -2.722 -6 -6 -6 Z m 15 0 c -3.278 0 -6 2.722 -6 6 s 2.722 6 6 6 s 6 -2.722 6 -6 s -2.722 -6 -6 -6 Z m 19 3 a 3 3 0 1 0 0 6 h 16 a 3 3 0 0 0 0 -6 H 58 Z" /></g><!----></svg>