 <svg version="1.0" xmlns="http://www.w3.org/2000/svg" width="700.000000pt" height="288.000000pt" viewBox="0 0 700.000000 288.000000" preserveAspectRatio="xMidYMid meet">
<metadata>
Created by potrace 1.12, written by Peter Selinger 2001-2015
</metadata>
<g transform="translate(0.000000,288.000000) scale(0.100000,-0.100000)" fill="#000000" stroke="none">
<path d="M1214 2171 c-59 -36 -66 -68 -60 -284 3 -106 5 -208 4 -227 -1 -45
-1 -395 0 -440 1 -19 -1 -121 -4 -227 -6 -216 1 -248 60 -284 29 -17 55 -19
329 -19 191 0 297 4 297 10 0 6 -96 10 -267 10 -148 0 -284 5 -304 10 -19 6
-46 22 -60 36 -24 25 -24 28 -23 202 0 97 2 202 3 232 2 55 3 228 5 672 l1
237 28 28 27 28 398 6 c218 4 502 7 630 8 147 1 232 5 232 11 0 7 -217 10
-632 10 -602 0 -635 -1 -664 -19z"></path>
<path d="M2620 2182 c0 -4 16 -14 36 -21 25 -9 40 -23 52 -49 21 -46 21 -47
28 -40 12 13 -27 79 -58 98 -34 21 -58 26 -58 12z"></path>
<path d="M1282 2112 c-47 -7 -54 -37 -50 -210 3 -141 5 -163 22 -181 18 -20
28 -21 255 -21 397 0 971 13 971 22 0 4 -271 9 -602 10 l-603 3 0 170 0 170
658 3 c367 1 657 6 657 11 0 10 -1249 32 -1308 23z"></path>
<path d="M1383 2000 c-40 -24 -53 -48 -53 -100 0 -57 50 -110 104 -110 52 0
90 23 111 66 23 50 13 95 -31 133 -41 37 -84 40 -131 11z m114 -42 c42 -39 27
-108 -27 -127 -56 -19 -104 16 -104 76 0 66 81 98 131 51z"></path>
<path d="M1673 2000 c-40 -24 -53 -48 -53 -99 0 -59 40 -101 103 -108 44 -5
49 -3 87 35 56 55 56 98 1 153 -45 45 -86 51 -138 19z m113 -34 c56 -47 20
-146 -52 -146 -34 0 -84 51 -84 85 0 34 50 85 84 85 14 0 37 -11 52 -24z"></path>
<path d="M2053 1934 c-15 -24 -15 -29 -2 -53 l15 -26 189 0 189 0 15 26 c13
24 13 29 -2 53 l-17 26 -185 0 -185 0 -17 -26z m380 -15 c6 -9 7 -24 4 -33 -6
-14 -28 -16 -167 -16 -162 0 -200 7 -200 36 0 26 42 33 199 31 129 -2 155 -5
164 -18z"></path>
<path d="M3750 1665 c0 -8 7 -15 15 -15 8 0 15 7 15 15 0 8 -7 15 -15 15 -8 0
-15 -7 -15 -15z"></path>
<path d="M4462 1558 c3 -108 5 -123 21 -126 15 -3 17 8 17 122 0 120 -1 126
-20 126 -20 0 -20 -5 -18 -122z"></path>
<path d="M5040 1640 c0 -37 -2 -40 -19 -30 -32 17 -58 12 -80 -16 -26 -33 -28
-109 -5 -142 14 -20 22 -22 77 -19 l62 3 3 122 c2 117 2 122 -18 122 -17 0
-20 -6 -20 -40z m-12 -62 c18 -18 15 -94 -4 -112 -21 -22 -40 -20 -58 6 -30
43 -13 118 27 118 13 0 28 -5 35 -12z"></path>
<path d="M5220 1555 c0 -104 2 -125 15 -125 12 0 15 14 15 69 0 75 12 95 52
89 21 -3 23 -8 26 -80 3 -70 5 -78 22 -78 18 0 20 7 20 64 0 36 -4 76 -10 90
-11 30 -54 44 -81 27 -27 -16 -29 -15 -29 29 0 29 -4 40 -15 40 -13 0 -15 -21
-15 -125z"></path>
<path d="M3040 1550 c0 -113 1 -120 20 -120 18 0 20 7 20 55 l0 55 60 0 60 0
0 -55 c0 -48 2 -55 20 -55 19 0 20 7 20 120 0 113 -1 120 -20 120 -17 0 -20
-7 -20 -50 l0 -50 -60 0 -60 0 0 50 c0 43 -3 50 -20 50 -19 0 -20 -7 -20 -120z"></path>
<path d="M4261 1656 c-33 -18 -50 -53 -51 -104 0 -80 38 -121 112 -122 36 0
54 6 78 26 22 19 28 30 21 37 -8 8 -18 4 -33 -10 -34 -31 -63 -36 -97 -19 -53
28 -65 121 -20 162 28 25 85 22 115 -7 22 -20 24 -21 30 -4 18 45 -95 74 -155
41z"></path>
<path d="M3656 1629 c-10 -21 -13 -36 -6 -43 5 -7 10 -43 12 -81 l3 -70 33 -3
c35 -4 44 12 12 21 -17 4 -20 14 -20 66 0 46 4 62 18 71 16 10 16 10 0 20 -10
6 -18 17 -18 25 0 28 -19 24 -34 -6z"></path>
<path d="M1260 1632 c-25 -20 -25 -21 -25 -186 1 -225 -13 -212 223 -209 478
6 792 16 792 25 0 5 -188 8 -487 6 l-488 -3 0 175 0 175 593 -2 c325 0 592 2
592 7 0 8 -240 15 -835 26 -332 6 -341 6 -365 -14z"></path>
<path d="M5777 1624 c-13 -18 -16 -29 -8 -37 5 -7 11 -44 13 -82 l3 -70 33 -3
c35 -4 44 12 12 21 -17 4 -20 14 -20 66 0 52 3 62 22 72 l22 12 -22 8 c-12 5
-22 15 -22 24 0 22 -12 18 -33 -11z"></path>
<path d="M3323 1610 c-29 -12 -43 -40 -43 -88 0 -57 30 -92 81 -92 57 0 79 26
79 94 0 47 -4 57 -26 75 -28 22 -55 25 -91 11z m77 -39 c26 -50 3 -121 -39
-121 -37 0 -61 63 -42 113 8 21 17 27 40 27 20 0 34 -7 41 -19z"></path>
<path d="M3504 1610 c-33 -13 -37 -48 -9 -76 13 -13 32 -24 43 -24 10 0 27 -6
37 -14 16 -12 17 -16 6 -30 -17 -21 -50 -20 -73 1 -15 13 -21 14 -31 4 -19
-19 18 -41 69 -41 46 0 74 19 74 50 0 27 -25 48 -71 60 -29 8 -39 16 -37 28 4
20 45 29 61 13 16 -16 37 -13 37 4 0 28 -63 43 -106 25z"></path>
<path d="M3756 1613 c-3 -3 -6 -46 -6 -95 0 -72 3 -88 15 -88 12 0 15 17 15
89 0 83 -7 111 -24 94z"></path>
<path d="M3837 1613 c-4 -3 -7 -46 -7 -95 0 -72 3 -88 15 -88 12 0 15 14 15
63 0 73 15 101 51 95 23 -3 24 -7 27 -80 3 -70 5 -78 22 -78 18 0 20 7 20 75
0 62 -4 79 -20 95 -22 22 -60 26 -78 8 -8 -8 -15 -8 -25 0 -8 7 -17 9 -20 5z"></path>
<path d="M4041 1603 c-38 -31 -40 -122 -5 -157 18 -19 65 -21 82 -4 19 19 28
-1 11 -30 -18 -33 -44 -39 -69 -17 -26 23 -47 9 -24 -16 24 -26 87 -26 114 1
17 17 20 33 20 123 0 107 -4 124 -26 106 -9 -7 -19 -7 -33 0 -28 15 -46 14
-70 -6z m87 -46 c18 -37 7 -85 -24 -99 -35 -16 -54 4 -54 57 0 62 8 77 39 73
17 -2 30 -13 39 -31z"></path>
<path d="M4573 1608 c-28 -13 -47 -69 -39 -111 10 -48 33 -67 81 -67 59 0 80
26 80 97 0 45 -4 58 -24 74 -25 21 -64 24 -98 7z m75 -30 c16 -16 16 -100 0
-116 -7 -7 -21 -12 -33 -12 -32 0 -45 20 -45 70 0 50 13 70 45 70 12 0 26 -5
33 -12z"></path>
<path d="M4737 1614 c-14 -14 -7 -139 8 -162 14 -19 24 -21 76 -20 l60 2 -3
90 c-3 105 -21 123 -26 26 -3 -71 -22 -103 -56 -98 -19 3 -22 12 -26 82 -5 73
-15 98 -33 80z"></path>
<path d="M5444 1610 c-45 -18 -57 -118 -18 -161 23 -25 95 -26 116 -1 40 44
28 145 -19 163 -29 11 -51 11 -79 -1z m74 -32 c15 -15 16 -82 2 -109 -12 -21
-50 -25 -68 -7 -7 7 -12 33 -12 58 0 50 13 70 45 70 12 0 26 -5 33 -12z"></path>
<path d="M5622 1604 c-24 -17 -29 -56 -9 -71 6 -6 29 -16 50 -23 42 -13 58
-37 36 -51 -22 -14 -51 -11 -71 8 -13 11 -22 13 -29 6 -18 -18 18 -43 62 -43
56 0 79 15 79 51 0 24 -6 32 -37 45 -62 27 -68 31 -68 45 0 19 43 24 71 8 33
-17 44 -1 15 22 -28 23 -69 24 -99 3z"></path>
<path d="M1413 1553 c-12 -2 -36 -20 -53 -39 -44 -50 -42 -104 4 -150 28 -28
41 -34 78 -34 50 0 82 18 103 60 20 39 19 69 -5 108 -18 29 -75 65 -97 61 -4
-1 -18 -4 -30 -6z m91 -64 c14 -17 26 -39 26 -49 0 -10 -12 -32 -26 -49 -33
-40 -83 -43 -119 -6 -52 51 -15 135 59 135 26 0 40 -7 60 -31z"></path>
<path d="M1654 1516 c-28 -28 -34 -42 -34 -76 0 -34 6 -48 34 -76 29 -29 41
-34 81 -34 38 0 52 5 75 29 52 51 52 111 0 162 -23 24 -37 29 -75 29 -40 0
-52 -5 -81 -34z m144 -22 c47 -53 9 -138 -61 -138 -99 0 -120 132 -27 167 26
10 64 -3 88 -29z"></path>
<path d="M2060 1480 c-11 -11 -20 -29 -20 -40 0 -11 9 -29 20 -40 18 -18 33
-20 150 -20 80 0 130 4 130 10 0 6 -45 10 -116 10 -122 0 -154 8 -154 40 0 32
33 40 169 40 81 0 131 4 131 10 0 6 -55 10 -145 10 -132 0 -147 -2 -165 -20z"></path>
<path d="M2400 1492 c0 -4 10 -12 23 -17 30 -13 34 -50 8 -67 -22 -14 -28 -28
-11 -28 17 0 50 39 50 60 0 23 -33 60 -55 60 -8 0 -15 -3 -15 -8z"></path>
<path d="M5130 1450 c0 -11 7 -20 15 -20 8 0 15 9 15 20 0 11 -7 20 -15 20 -8
0 -15 -9 -15 -20z"></path>
<path d="M3061 1254 c-25 -31 -27 -54 -6 -54 8 0 15 9 15 20 0 27 34 44 60 30
35 -19 19 -70 -22 -70 -25 0 -68 -44 -68 -70 0 -18 6 -20 65 -20 75 0 89 17
18 22 -62 4 -63 25 -3 47 40 14 45 20 48 50 7 67 -66 97 -107 45z"></path>
<path d="M3360 1260 c-16 -16 -20 -33 -20 -80 0 -68 21 -100 65 -100 44 0 65
32 65 100 0 68 -21 100 -65 100 -14 0 -34 -9 -45 -20z m74 -22 c18 -26 21 -80
6 -109 -6 -11 -21 -19 -35 -19 -29 0 -45 26 -45 72 0 37 24 78 45 78 8 0 21
-10 29 -22z"></path>
<path d="M3392 1184 c4 -21 22 -23 26 -1 2 10 -3 17 -13 17 -10 0 -15 -6 -13
-16z"></path>
<path d="M3638 1274 c-3 -3 5 -25 19 -50 l25 -44 -25 -45 c-29 -52 -17 -73 13
-23 11 18 20 36 20 41 0 20 22 2 40 -33 28 -56 45 -41 18 15 l-22 45 22 45
c27 56 10 71 -18 15 -11 -22 -24 -40 -29 -40 -5 0 -14 13 -21 30 -13 32 -34
53 -42 44z"></path>
<path d="M4247 1274 c-11 -11 -8 -182 2 -189 6 -3 11 14 13 37 3 43 3 43 46
46 23 2 42 7 42 12 0 5 -19 10 -42 12 -38 3 -43 6 -43 28 0 22 5 26 45 30 25
3 45 10 45 15 0 12 -97 19 -108 9z"></path>
<path d="M4572 1263 c-18 -33 -53 -165 -47 -171 4 -4 14 3 22 16 23 34 80 31
94 -5 7 -18 13 -23 20 -16 16 16 -41 187 -63 191 -9 2 -21 -5 -26 -15z m38
-49 c16 -42 12 -54 -19 -54 -28 0 -28 0 -18 40 13 46 24 50 37 14z"></path>
<path d="M4847 1262 c-35 -38 -17 -77 41 -88 64 -13 64 -64 1 -64 -22 0 -32 6
-39 25 -11 30 -30 33 -30 6 0 -24 45 -61 74 -61 32 0 66 28 66 55 0 31 -21 51
-64 59 -40 8 -55 35 -30 53 25 18 32 17 58 -12 27 -29 36 -31 36 -10 0 46 -81
72 -113 37z"></path>
<path d="M5125 1270 c-3 -5 1 -12 9 -15 9 -3 23 -7 31 -10 12 -3 15 -22 15
-87 0 -103 18 -94 22 12 3 68 5 75 26 80 13 3 24 10 25 15 3 14 -119 19 -128
5z"></path>
<path d="M5437 1274 c-4 -4 -7 -47 -7 -96 l0 -88 62 0 c68 0 70 16 3 22 -35 3
-40 6 -40 28 0 22 5 25 43 28 23 2 42 7 42 12 0 5 -19 10 -42 12 -38 3 -43 6
-43 28 0 22 5 25 43 28 28 2 42 7 39 15 -4 13 -88 22 -100 11z"></path>
<path d="M5727 1273 c-4 -3 -7 -46 -7 -95 0 -70 3 -88 14 -88 9 0 16 12 18 33
3 28 6 32 33 32 27 0 30 -4 33 -32 5 -51 23 -39 22 15 0 26 2 61 6 78 5 26 2
35 -17 48 -23 16 -90 22 -102 9z m88 -53 c0 -21 -5 -26 -32 -28 -29 -3 -33 0
-33 21 0 31 9 39 40 35 19 -2 25 -9 25 -28z"></path>
<path d="M1263 1165 c-22 -16 -23 -22 -23 -184 0 -128 3 -172 14 -187 13 -17
27 -19 138 -19 381 0 628 6 628 15 0 6 -136 11 -372 12 l-373 3 0 170 0 170
478 3 c306 1 477 6 477 12 0 6 -55 10 -143 10 -79 0 -292 3 -473 6 -297 5
-331 4 -351 -11z"></path>
<path d="M1364 1056 c-28 -28 -34 -41 -34 -78 0 -50 18 -82 60 -103 48 -25 86
-19 128 19 33 30 37 40 37 81 0 41 -4 51 -37 81 -53 48 -106 48 -154 0z m137
-25 c17 -18 29 -40 29 -56 0 -38 -50 -85 -90 -85 -44 0 -80 39 -80 85 0 79 84
112 141 56z"></path>
<path d="M1654 1056 c-28 -28 -34 -41 -34 -78 0 -50 18 -82 60 -103 48 -25 86
-19 128 19 33 30 37 40 37 81 0 41 -4 51 -37 81 -53 48 -106 48 -154 0z m146
-21 c53 -56 12 -149 -65 -149 -77 0 -118 93 -65 149 18 19 34 25 65 25 31 0
47 -6 65 -25z"></path>
<path d="M2053 1004 c-15 -24 -15 -29 -2 -53 8 -14 25 -27 37 -29 27 -4 29 14
2 21 -41 11 -32 67 11 67 11 0 19 5 19 10 0 22 -50 10 -67 -16z"></path>
</g>
</svg>