<svg id="svg" version="1.1" xmlns="http://www.w3.org/2000/svg" xmlns:xlink="http://www.w3.org/1999/xlink" width="400" height="102.5" viewBox="0, 0, 400,102.5"><g id="svgg"><path id="path0" d="M97.924 40.407 C 97.379 40.524,96.904 40.705,96.869 40.810 C 96.834 40.914,96.711 41.000,96.595 41.000 C 95.948 41.000,93.500 42.930,93.500 43.439 C 93.500 43.545,93.406 43.667,93.291 43.711 C 93.176 43.755,92.978 44.082,92.851 44.437 C 92.724 44.793,92.571 45.121,92.511 45.167 C 92.452 45.212,92.299 45.550,92.171 45.917 C 91.875 46.766,91.712 66.547,91.983 68.761 C 92.152 70.148,92.981 72.333,93.337 72.333 C 93.426 72.333,93.500 72.428,93.500 72.545 C 93.500 72.843,94.879 74.246,95.531 74.611 C 95.832 74.779,96.169 75.002,96.281 75.105 C 96.393 75.209,96.976 75.392,97.576 75.511 C 98.176 75.630,98.667 75.789,98.667 75.864 C 98.667 76.042,103.218 76.042,103.425 75.864 C 103.512 75.789,103.996 75.631,104.500 75.513 C 105.004 75.395,105.696 75.119,106.038 74.899 C 106.380 74.680,106.704 74.500,106.757 74.500 C 106.914 74.500,108.667 72.703,108.667 72.542 C 108.667 72.462,108.810 72.242,108.986 72.054 C 109.326 71.689,109.833 70.364,109.833 69.841 C 109.833 69.669,109.927 69.497,110.042 69.458 C 110.331 69.362,110.347 47.253,110.058 46.650 C 109.953 46.430,109.740 45.819,109.584 45.292 C 109.429 44.765,109.243 44.333,109.171 44.333 C 109.099 44.333,108.947 44.108,108.833 43.832 C 108.485 42.993,107.021 41.631,106.019 41.213 C 105.688 41.075,105.376 40.898,105.327 40.820 C 104.970 40.254,99.946 39.974,97.924 40.407 M118.000 40.394 C 117.074 40.595,115.627 41.211,115.167 41.599 C 114.426 42.225,113.500 43.249,113.500 43.444 C 113.500 43.566,113.428 43.667,113.340 43.667 C 113.158 43.667,112.667 45.200,112.667 45.766 C 112.667 45.971,112.578 46.168,112.469 46.205 C 112.179 46.301,112.169 52.862,112.459 52.959 C 112.573 52.997,112.667 53.130,112.667 53.256 C 112.667 53.756,113.040 55.184,113.223 55.380 C 113.329 55.495,113.558 55.865,113.731 56.204 C 114.136 56.997,116.173 58.991,116.585 58.997 C 116.677 58.999,116.847 59.150,116.961 59.333 C 117.076 59.517,117.279 59.667,117.412 59.667 C 117.546 59.667,117.735 59.817,117.833 60.000 C 117.931 60.183,118.121 60.333,118.254 60.333 C 118.388 60.333,118.591 60.483,118.705 60.667 C 118.820 60.850,118.989 61.001,119.082 61.003 C 119.174 61.004,119.513 61.234,119.833 61.514 C 120.154 61.794,120.668 62.243,120.974 62.511 C 121.281 62.780,121.594 63.000,121.670 63.000 C 122.205 63.000,122.750 64.947,122.750 66.858 L 122.750 68.800 122.196 69.330 C 121.866 69.645,121.541 69.821,121.391 69.763 C 121.253 69.710,121.040 69.667,120.919 69.667 C 120.486 69.667,120.333 68.616,120.333 65.642 L 120.333 62.667 116.480 62.667 L 112.626 62.667 112.717 66.292 C 112.800 69.630,113.015 71.500,113.313 71.500 C 113.379 71.500,113.534 71.781,113.657 72.125 C 113.921 72.860,115.408 74.354,116.198 74.677 C 116.501 74.801,116.843 74.993,116.956 75.104 C 117.150 75.293,118.566 75.667,119.092 75.667 C 119.225 75.667,119.333 75.742,119.333 75.833 C 119.333 76.047,123.894 76.059,124.294 75.846 C 124.453 75.762,125.065 75.567,125.654 75.413 C 126.242 75.259,126.829 75.028,126.957 74.900 C 127.085 74.772,127.294 74.667,127.421 74.667 C 127.692 74.667,129.667 72.789,129.667 72.532 C 129.667 72.436,129.778 72.246,129.914 72.110 C 130.812 71.211,130.899 60.999,130.013 60.333 C 129.953 60.288,129.797 59.923,129.669 59.524 C 129.540 59.125,129.337 58.760,129.217 58.714 C 129.098 58.669,129.000 58.552,129.000 58.455 C 129.000 58.263,126.823 56.008,126.633 56.003 C 126.568 56.001,126.335 55.831,126.115 55.625 C 125.895 55.419,125.535 55.116,125.316 54.952 C 123.771 53.799,123.334 53.500,123.194 53.500 C 123.107 53.500,122.992 53.387,122.940 53.250 C 122.887 53.112,122.732 53.000,122.596 53.000 C 121.908 53.000,120.370 51.105,120.245 50.101 C 119.965 47.857,120.367 46.333,121.240 46.333 C 122.077 46.333,122.212 46.711,122.301 49.292 L 122.377 51.500 126.272 51.500 L 130.167 51.500 130.167 49.250 C 130.167 47.861,130.103 47.000,130.000 47.000 C 129.908 47.000,129.832 46.719,129.830 46.375 C 129.825 45.465,129.441 43.774,129.159 43.424 C 128.139 42.156,126.588 41.000,125.905 41.000 C 125.789 41.000,125.669 40.925,125.639 40.833 C 125.450 40.266,120.027 39.953,118.000 40.394 M189.000 40.277 C 188.162 40.406,187.167 40.713,187.167 40.842 C 187.167 40.915,186.912 41.058,186.600 41.161 C 185.912 41.388,184.307 42.813,183.802 43.645 C 183.600 43.978,183.370 44.294,183.292 44.348 C 183.096 44.484,182.671 46.138,182.669 46.778 C 182.668 47.068,182.573 47.337,182.458 47.375 C 182.295 47.430,182.250 49.737,182.250 58.167 C 182.250 66.596,182.295 68.904,182.458 68.958 C 182.573 68.997,182.667 69.235,182.667 69.489 C 182.667 70.365,183.676 72.783,184.111 72.950 C 184.233 72.997,184.333 73.131,184.333 73.247 C 184.333 73.489,185.402 74.452,185.958 74.712 C 186.165 74.808,186.333 74.941,186.333 75.007 C 186.333 75.073,186.783 75.267,187.332 75.439 C 187.881 75.610,188.331 75.806,188.332 75.875 C 188.333 75.944,189.158 76.000,190.167 76.000 C 191.278 76.000,192.000 75.934,192.000 75.833 C 192.000 75.742,192.116 75.667,192.258 75.667 C 192.868 75.667,194.322 74.557,194.819 73.715 C 195.055 73.313,195.284 73.655,195.431 74.625 L 195.538 75.333 198.269 75.333 L 201.000 75.333 201.000 65.917 L 201.000 56.500 196.167 56.500 L 191.333 56.500 191.333 59.333 L 191.333 62.167 192.190 62.167 L 193.046 62.167 192.951 65.375 C 192.842 69.029,192.815 69.174,192.170 69.555 C 191.610 69.886,191.294 69.797,190.885 69.194 C 190.602 68.777,190.583 68.099,190.583 58.000 C 190.583 46.036,190.556 46.333,191.667 46.333 C 192.520 46.333,192.635 46.769,192.766 50.480 L 192.884 53.833 196.942 53.833 L 201.000 53.833 201.000 50.833 C 201.000 48.944,200.938 47.833,200.833 47.833 C 200.742 47.833,200.667 47.587,200.667 47.285 C 200.667 46.509,200.211 44.853,199.915 44.558 C 199.779 44.421,199.667 44.206,199.667 44.080 C 199.667 43.871,198.144 42.242,197.429 41.686 C 195.849 40.456,191.996 39.812,189.000 40.277 M209.758 40.407 C 209.212 40.524,208.737 40.705,208.702 40.810 C 208.667 40.914,208.544 41.000,208.428 41.000 C 208.137 41.000,207.176 41.493,206.838 41.816 C 206.684 41.963,206.369 42.233,206.138 42.417 C 205.907 42.600,205.577 42.975,205.405 43.250 C 205.232 43.525,205.009 43.803,204.908 43.867 C 204.808 43.931,204.625 44.287,204.503 44.659 C 204.380 45.030,204.225 45.333,204.159 45.333 C 203.699 45.333,203.583 47.804,203.583 57.583 C 203.583 67.320,203.726 70.500,204.163 70.500 C 204.233 70.500,204.339 70.801,204.398 71.169 C 204.457 71.537,204.654 71.987,204.836 72.169 C 205.018 72.351,205.167 72.562,205.167 72.637 C 205.167 72.881,206.596 74.273,207.181 74.599 C 207.494 74.774,207.787 74.965,207.833 75.024 C 207.958 75.184,209.671 75.667,210.114 75.667 C 210.326 75.667,210.500 75.742,210.500 75.833 C 210.500 75.937,211.444 76.000,213.000 76.000 C 214.556 76.000,215.500 75.937,215.500 75.833 C 215.500 75.742,215.641 75.667,215.814 75.667 C 216.236 75.667,217.892 75.135,218.013 74.961 C 218.067 74.884,218.349 74.693,218.642 74.536 C 219.404 74.126,220.932 72.565,221.265 71.855 C 221.421 71.522,221.610 71.210,221.684 71.161 C 221.885 71.029,222.333 68.265,222.333 67.155 C 222.333 66.622,222.408 66.140,222.500 66.083 C 222.599 66.022,222.667 64.998,222.667 63.573 L 222.667 61.167 218.500 61.167 L 214.333 61.167 214.333 64.500 C 214.333 66.333,214.268 67.833,214.188 67.833 C 214.109 67.833,214.004 68.185,213.955 68.615 C 213.823 69.786,212.952 70.169,212.167 69.400 C 211.826 69.066,211.786 47.544,212.125 46.782 C 212.438 46.077,213.671 46.171,213.892 46.917 C 213.973 47.192,214.105 47.547,214.186 47.706 C 214.267 47.865,214.333 49.834,214.333 52.081 L 214.333 56.167 218.500 56.167 L 222.667 56.167 222.667 52.917 C 222.667 50.861,222.605 49.667,222.500 49.667 C 222.407 49.667,222.331 49.204,222.328 48.625 C 222.321 47.458,221.924 45.001,221.718 44.849 C 221.644 44.795,221.453 44.469,221.294 44.125 C 221.135 43.781,220.929 43.500,220.836 43.500 C 220.743 43.500,220.667 43.394,220.667 43.266 C 220.667 43.137,220.360 42.780,219.985 42.474 C 219.610 42.167,219.106 41.750,218.866 41.547 C 218.625 41.344,218.200 41.128,217.922 41.068 C 217.644 41.007,217.368 40.882,217.309 40.790 C 216.960 40.240,211.765 39.977,209.758 40.407 M245.009 40.435 C 244.418 40.564,243.893 40.736,243.842 40.816 C 243.791 40.897,243.465 41.081,243.116 41.227 C 242.320 41.558,240.813 42.982,240.398 43.796 C 240.225 44.134,239.995 44.506,239.887 44.622 C 239.779 44.738,239.596 45.264,239.481 45.792 C 239.365 46.319,239.191 46.804,239.094 46.869 C 238.850 47.033,238.845 69.129,239.089 69.298 C 239.183 69.363,239.362 69.821,239.485 70.315 C 239.890 71.938,241.587 74.164,242.792 74.654 C 243.090 74.775,243.333 74.934,243.333 75.008 C 243.333 75.165,244.971 75.667,245.484 75.667 C 245.676 75.667,245.833 75.742,245.833 75.833 C 245.833 75.937,246.722 76.000,248.167 76.000 C 249.611 76.000,250.500 75.937,250.500 75.833 C 250.500 75.742,250.674 75.667,250.886 75.667 C 251.435 75.667,253.000 75.182,253.000 75.012 C 253.000 74.933,253.181 74.824,253.402 74.769 C 254.148 74.581,256.143 72.420,256.420 71.500 C 256.489 71.271,256.611 71.041,256.691 70.989 C 256.974 70.806,257.333 68.286,257.333 66.485 C 257.333 65.384,257.399 64.667,257.500 64.667 C 257.608 64.667,257.667 62.333,257.667 58.000 C 257.667 53.667,257.608 51.333,257.500 51.333 C 257.399 51.333,257.331 50.593,257.327 49.458 C 257.321 47.561,257.012 45.387,256.720 45.191 C 256.632 45.132,256.429 44.749,256.268 44.341 C 254.999 41.119,249.927 39.360,245.009 40.435 M336.917 40.418 C 334.941 40.862,332.816 42.431,332.064 44.000 C 331.910 44.321,331.728 44.621,331.660 44.667 C 331.463 44.799,331.000 46.507,331.000 47.100 C 331.000 47.396,330.906 47.670,330.792 47.708 C 330.487 47.810,330.487 68.054,330.792 68.358 C 330.906 68.473,331.000 68.735,331.000 68.942 C 331.000 69.579,331.351 70.994,331.563 71.211 C 331.674 71.324,331.861 71.653,331.979 71.942 C 332.097 72.231,332.375 72.638,332.597 72.846 C 332.819 73.054,333.000 73.326,333.000 73.450 C 333.000 73.574,333.188 73.746,333.417 73.833 C 333.646 73.920,333.833 74.052,333.833 74.125 C 333.833 74.198,334.115 74.406,334.458 74.587 C 334.802 74.768,335.174 75.001,335.284 75.105 C 335.394 75.209,335.976 75.392,336.576 75.511 C 337.176 75.630,337.667 75.789,337.667 75.864 C 337.667 75.939,338.717 76.000,340.000 76.000 C 341.283 76.000,342.333 75.939,342.333 75.864 C 342.333 75.789,342.824 75.630,343.424 75.511 C 344.024 75.392,344.607 75.209,344.719 75.105 C 344.831 75.002,345.178 74.773,345.491 74.598 C 346.226 74.186,347.551 72.793,347.943 72.021 C 348.112 71.689,348.303 71.377,348.368 71.328 C 348.572 71.174,349.000 69.293,349.000 68.548 C 349.000 68.155,349.075 67.833,349.167 67.833 C 349.276 67.833,349.333 64.476,349.333 58.093 C 349.333 51.780,349.275 48.317,349.167 48.250 C 349.075 48.193,349.000 47.844,349.000 47.474 C 349.000 46.256,347.950 43.500,347.486 43.500 C 347.402 43.500,347.333 43.400,347.333 43.278 C 347.333 42.989,346.178 41.833,345.889 41.833 C 345.767 41.833,345.667 41.755,345.667 41.658 C 345.667 41.562,345.385 41.366,345.042 41.223 C 344.698 41.080,344.376 40.898,344.327 40.820 C 343.966 40.247,338.899 39.972,336.917 40.418 M357.083 40.346 C 354.723 40.809,352.295 42.763,351.917 44.505 C 351.848 44.823,351.726 45.125,351.646 45.176 C 351.133 45.504,351.116 53.611,351.627 53.991 C 351.696 54.042,351.895 54.515,352.069 55.042 C 352.244 55.569,352.438 56.000,352.499 56.000 C 352.560 56.000,352.716 56.206,352.845 56.458 C 353.094 56.945,353.934 57.812,354.823 58.500 C 355.119 58.729,355.599 59.122,355.889 59.372 C 356.179 59.623,356.492 59.829,356.585 59.831 C 356.677 59.832,356.847 59.983,356.961 60.167 C 357.076 60.350,357.279 60.500,357.412 60.500 C 357.546 60.500,357.735 60.650,357.833 60.833 C 357.931 61.017,358.090 61.167,358.186 61.167 C 358.352 61.167,359.588 62.109,360.183 62.690 C 360.337 62.840,360.565 63.027,360.690 63.106 C 361.052 63.336,361.333 63.949,361.443 64.754 C 361.499 65.164,361.610 65.500,361.689 65.500 C 362.425 65.500,361.548 69.363,360.743 69.669 C 359.523 70.133,359.333 69.581,359.333 65.563 L 359.333 62.667 355.310 62.667 L 351.286 62.667 351.407 65.791 C 351.474 67.509,351.586 68.952,351.656 68.999 C 351.726 69.045,351.832 69.512,351.892 70.035 C 352.006 71.023,352.261 71.758,352.623 72.137 C 352.739 72.258,352.833 72.449,352.833 72.562 C 352.833 72.827,354.809 74.667,355.094 74.667 C 355.212 74.667,355.409 74.761,355.530 74.877 C 355.872 75.203,356.550 75.462,357.397 75.589 C 357.823 75.653,358.212 75.771,358.262 75.853 C 358.376 76.038,363.167 76.049,363.167 75.864 C 363.167 75.789,363.658 75.630,364.258 75.511 C 364.858 75.392,365.439 75.206,365.549 75.098 C 365.660 74.991,366.001 74.800,366.308 74.674 C 367.349 74.248,369.000 72.366,369.000 71.605 C 369.000 71.471,369.071 71.336,369.157 71.306 C 369.789 71.082,369.796 61.394,369.165 61.000 C 369.091 60.954,368.977 60.632,368.912 60.286 C 368.847 59.939,368.615 59.392,368.397 59.070 C 368.179 58.748,368.000 58.441,368.000 58.388 C 368.000 58.258,365.862 56.197,365.179 55.667 C 364.883 55.438,364.441 55.081,364.196 54.874 C 363.951 54.667,363.619 54.456,363.458 54.404 C 363.298 54.353,363.167 54.249,363.167 54.174 C 363.167 54.099,362.904 53.913,362.583 53.761 C 362.262 53.609,362.000 53.430,362.000 53.363 C 362.000 53.297,361.725 53.094,361.388 52.913 C 360.324 52.340,359.333 51.199,359.333 50.546 C 359.333 50.337,359.258 50.167,359.167 50.167 C 359.069 50.167,359.000 49.583,359.000 48.750 C 359.000 47.971,359.068 47.333,359.150 47.333 C 359.233 47.333,359.379 47.108,359.475 46.833 C 359.613 46.437,359.746 46.334,360.116 46.336 C 361.098 46.341,361.306 46.951,361.323 49.875 L 361.333 51.500 365.191 51.500 L 369.049 51.500 368.955 48.708 C 368.857 45.819,368.625 44.268,368.229 43.872 C 368.103 43.746,368.000 43.546,368.000 43.428 C 368.000 43.231,367.347 42.516,366.503 41.789 C 366.316 41.628,365.844 41.370,365.456 41.218 C 365.068 41.065,364.712 40.894,364.667 40.838 C 364.257 40.340,358.893 39.992,357.083 40.346 M73.575 40.825 C 73.488 40.912,72.854 41.006,72.166 41.034 L 70.917 41.083 70.874 58.042 L 70.832 75.000 74.666 75.000 L 78.500 75.000 78.523 72.625 C 78.535 71.319,78.592 68.112,78.648 65.500 L 78.750 60.750 79.917 60.750 L 81.083 60.750 81.127 67.875 L 81.170 75.000 84.975 75.000 L 88.779 75.000 88.889 67.223 C 88.950 62.945,89.000 55.219,89.000 50.053 L 89.000 40.661 84.875 40.705 L 80.750 40.750 80.706 46.844 L 80.663 52.938 79.838 53.149 C 78.586 53.470,78.647 53.829,78.773 46.905 L 78.887 40.667 76.310 40.667 C 74.893 40.667,73.662 40.738,73.575 40.825 M131.611 40.778 C 131.550 40.839,131.500 42.489,131.500 44.444 L 131.500 48.000 133.833 48.000 L 136.167 48.000 136.167 61.667 L 136.167 75.333 140.333 75.333 L 144.500 75.333 144.500 61.667 L 144.500 48.000 146.750 48.000 L 149.000 48.000 149.000 44.333 L 149.000 40.667 140.361 40.667 C 135.610 40.667,131.672 40.717,131.611 40.778 M150.500 58.000 L 150.500 75.333 154.667 75.333 L 158.833 75.333 158.833 58.000 L 158.833 40.667 154.667 40.667 L 150.500 40.667 150.500 58.000 M161.577 40.875 C 161.533 40.990,161.517 48.771,161.540 58.167 L 161.583 75.250 165.123 75.295 L 168.663 75.340 168.706 68.545 C 168.735 64.108,168.801 61.996,168.896 62.458 C 168.977 62.848,169.093 63.167,169.155 63.167 C 169.217 63.167,169.408 63.879,169.579 64.750 C 169.750 65.621,169.939 66.333,169.998 66.333 C 170.057 66.333,170.240 67.046,170.404 67.917 C 170.568 68.787,170.755 69.500,170.820 69.500 C 170.886 69.500,171.073 70.212,171.237 71.083 C 171.401 71.954,171.593 72.667,171.663 72.667 C 171.733 72.667,171.841 72.985,171.902 73.375 C 171.963 73.765,172.088 74.365,172.180 74.708 L 172.346 75.333 176.006 75.333 L 179.667 75.333 179.667 58.000 L 179.667 40.667 176.167 40.667 L 172.667 40.667 172.667 47.450 C 172.667 51.181,172.604 54.162,172.528 54.075 C 172.452 53.988,172.247 53.317,172.074 52.583 C 171.900 51.850,171.711 51.212,171.653 51.167 C 171.595 51.121,171.416 50.483,171.256 49.750 C 171.095 49.017,170.900 48.337,170.821 48.240 C 170.743 48.143,170.550 47.468,170.392 46.740 C 170.234 46.012,170.056 45.379,169.996 45.333 C 169.935 45.288,169.748 44.650,169.579 43.917 C 169.410 43.183,169.222 42.546,169.160 42.500 C 169.099 42.454,168.955 42.023,168.841 41.542 L 168.633 40.667 165.145 40.667 C 162.507 40.667,161.637 40.717,161.577 40.875 M224.910 40.875 C 224.866 40.990,224.850 48.771,224.874 58.167 L 224.917 75.250 231.542 75.294 L 238.167 75.337 238.167 71.669 L 238.167 68.000 235.667 68.000 L 233.167 68.000 233.167 54.333 L 233.167 40.667 229.078 40.667 C 225.961 40.667,224.971 40.716,224.910 40.875 M259.944 40.778 C 259.757 40.965,259.812 66.167,260.000 66.167 C 260.099 66.167,260.168 66.793,260.169 67.708 C 260.172 69.235,260.492 71.113,260.784 71.313 C 260.867 71.370,261.035 71.662,261.156 71.962 C 261.443 72.672,262.917 74.159,263.754 74.583 C 264.116 74.767,264.503 75.002,264.615 75.105 C 264.726 75.209,265.309 75.392,265.909 75.511 C 266.509 75.630,267.000 75.789,267.000 75.864 C 267.000 76.064,271.793 76.034,271.917 75.833 C 271.973 75.742,272.163 75.667,272.337 75.667 C 272.811 75.667,274.189 75.168,274.457 74.901 C 274.585 74.772,274.769 74.667,274.865 74.667 C 275.196 74.667,276.959 72.721,277.179 72.112 C 277.301 71.775,277.453 71.500,277.518 71.500 C 277.715 71.500,278.167 69.979,278.167 69.313 C 278.167 68.969,278.242 68.640,278.333 68.583 C 278.442 68.516,278.500 63.665,278.500 54.573 L 278.500 40.667 274.333 40.667 L 270.167 40.667 270.167 54.750 C 270.167 64.028,270.110 68.833,270.000 68.833 C 269.908 68.833,269.833 68.981,269.833 69.161 C 269.833 69.435,269.403 69.833,269.106 69.833 C 268.856 69.833,268.500 69.245,268.500 68.831 C 268.500 68.568,268.425 68.307,268.333 68.250 C 268.224 68.183,268.167 63.387,268.167 54.407 L 268.167 40.667 264.111 40.667 C 261.881 40.667,260.006 40.717,259.944 40.778 M281.167 58.013 L 281.167 75.359 288.278 75.304 C 293.780 75.262,295.405 75.203,295.458 75.042 C 295.497 74.927,295.690 74.832,295.889 74.830 C 296.838 74.820,298.722 73.418,298.937 72.562 C 298.991 72.345,299.095 72.167,299.166 72.167 C 300.025 72.167,300.044 45.384,299.185 44.843 C 299.104 44.792,298.920 44.469,298.777 44.125 C 298.634 43.781,298.450 43.500,298.369 43.500 C 298.287 43.500,298.135 43.313,298.030 43.083 C 297.926 42.854,297.734 42.667,297.605 42.667 C 297.475 42.667,297.329 42.562,297.280 42.434 C 297.013 41.739,294.214 41.000,291.843 41.000 C 291.170 41.000,290.667 40.929,290.667 40.833 C 290.667 40.726,288.972 40.667,285.917 40.667 L 281.167 40.667 281.167 58.013 M309.500 58.000 L 309.500 75.333 313.667 75.333 L 317.833 75.333 317.833 68.167 L 317.833 61.000 318.750 61.000 L 319.667 61.000 319.667 68.167 L 319.667 75.333 323.833 75.333 L 328.000 75.333 328.000 58.000 L 328.000 40.667 323.833 40.667 L 319.667 40.667 319.667 46.833 L 319.667 53.000 318.750 53.000 L 317.833 53.000 317.833 46.833 L 317.833 40.667 313.667 40.667 L 309.500 40.667 309.500 58.000 M370.333 44.333 L 370.333 48.000 372.750 48.000 L 375.167 48.000 375.167 61.667 L 375.167 75.333 379.333 75.333 L 383.500 75.333 383.500 61.667 L 383.500 48.000 385.750 48.000 L 388.000 48.000 388.000 44.333 L 388.000 40.667 379.167 40.667 L 370.333 40.667 370.333 44.333 M101.667 46.496 C 101.926 46.660,102.157 67.102,101.918 68.768 C 101.806 69.548,101.230 69.968,100.677 69.672 C 100.235 69.436,100.167 69.142,100.167 67.486 C 100.167 66.607,100.099 66.000,100.000 66.000 C 99.891 66.000,99.833 63.167,99.833 57.833 C 99.833 53.259,99.898 49.667,99.980 49.667 C 100.060 49.667,100.157 49.009,100.196 48.206 C 100.285 46.344,100.687 45.877,101.667 46.496 M248.827 46.656 C 248.922 46.833,249.000 47.246,249.000 47.572 C 249.000 47.899,249.075 48.167,249.167 48.167 C 249.276 48.167,249.333 51.469,249.333 57.740 C 249.333 63.943,249.275 67.350,249.167 67.417 C 249.075 67.473,249.000 67.810,249.000 68.166 C 249.000 69.959,247.494 70.477,247.249 68.768 C 246.961 66.764,247.246 47.039,247.567 46.684 C 247.965 46.245,248.600 46.231,248.827 46.656 M340.637 46.792 C 340.666 46.998,340.760 47.167,340.845 47.167 C 340.939 47.167,341.000 51.429,341.000 58.000 C 341.000 65.111,340.943 68.833,340.833 68.833 C 340.742 68.833,340.667 68.981,340.667 69.161 C 340.667 69.695,340.081 69.900,339.513 69.564 L 339.032 69.280 338.916 66.932 C 338.737 63.279,338.882 47.178,339.095 47.036 C 339.194 46.970,339.325 46.781,339.386 46.614 C 339.558 46.148,340.565 46.290,340.637 46.792 M290.511 47.230 C 291.419 47.430,291.417 47.406,291.417 57.734 C 291.417 68.317,291.409 68.416,290.579 68.763 C 289.408 69.252,289.500 70.174,289.500 57.989 C 289.500 47.583,289.516 46.982,289.792 47.057 C 289.952 47.100,290.276 47.178,290.511 47.230 M6.944 52.278 C 6.883 52.339,6.833 52.566,6.833 52.783 C 6.833 53.000,6.721 53.220,6.583 53.273 C 6.297 53.383,6.203 58.400,6.484 58.574 C 6.568 58.625,6.594 58.509,6.544 58.317 C 6.472 58.040,6.519 57.979,6.768 58.027 C 6.941 58.061,7.083 58.192,7.083 58.319 C 7.083 58.447,7.365 58.697,7.708 58.875 C 8.052 59.053,8.333 59.314,8.333 59.453 C 8.333 59.666,8.376 59.672,8.596 59.489 C 8.929 59.213,9.170 59.525,9.037 60.060 C 8.949 60.413,8.951 60.413,9.308 60.098 C 9.772 59.689,9.889 59.823,9.889 60.765 C 9.889 61.470,10.634 62.333,11.243 62.333 C 11.289 62.333,11.985 62.643,12.788 63.021 C 13.592 63.399,14.850 63.991,15.583 64.336 C 16.317 64.681,17.667 65.315,18.583 65.745 C 19.500 66.175,20.775 66.777,21.417 67.083 C 26.332 69.428,27.542 70.000,27.585 70.000 C 27.613 70.000,28.959 70.637,30.578 71.417 C 32.198 72.196,33.547 72.833,33.578 72.833 C 33.609 72.833,34.673 73.335,35.942 73.947 C 38.769 75.311,38.863 75.315,41.250 74.176 C 43.524 73.091,44.816 72.485,46.000 71.948 C 46.504 71.720,47.817 71.105,48.917 70.582 C 50.017 70.059,51.292 69.460,51.750 69.252 C 53.786 68.326,56.589 67.012,56.818 66.876 C 56.907 66.824,56.835 64.613,56.741 64.519 C 56.701 64.479,56.537 64.552,56.376 64.682 C 56.060 64.935,55.296 65.322,53.333 66.221 C 52.646 66.536,51.258 67.186,50.250 67.665 C 49.242 68.144,47.854 68.800,47.167 69.123 C 45.603 69.856,42.740 71.213,40.667 72.204 C 38.698 73.144,38.833 73.284,38.833 70.305 C 38.833 66.575,39.120 66.898,33.500 64.287 C 32.813 63.968,31.537 63.370,30.667 62.959 C 29.796 62.547,28.671 62.021,28.167 61.790 C 27.662 61.558,26.238 60.883,25.000 60.291 C 23.762 59.698,22.412 59.059,22.000 58.871 C 21.199 58.506,19.446 57.688,16.750 56.418 C 15.833 55.987,14.596 55.407,14.000 55.130 C 12.060 54.227,10.269 53.379,9.011 52.767 C 7.830 52.192,7.183 52.039,6.944 52.278 M10.140 55.727 C 10.726 56.262,10.873 56.615,10.667 57.000 C 10.391 57.515,9.624 57.432,9.013 56.821 C 7.848 55.655,8.920 54.615,10.140 55.727 M13.086 57.071 C 13.822 57.754,13.652 58.823,12.804 58.831 C 12.087 58.837,11.155 57.234,11.611 56.778 C 11.861 56.528,12.675 56.690,13.086 57.071 M16.105 58.595 C 16.847 59.381,16.687 60.167,15.786 60.167 C 15.388 60.167,14.333 59.093,14.333 58.688 C 14.333 57.828,15.332 57.776,16.105 58.595 M7.193 62.247 C 6.949 62.382,6.882 62.489,7.015 62.533 C 7.342 62.642,7.058 63.167,6.672 63.167 C 6.345 63.167,6.333 63.263,6.333 65.995 C 6.333 68.370,6.371 68.808,6.570 68.732 C 6.855 68.623,8.069 69.757,8.237 70.292 C 8.302 70.498,8.430 70.667,8.521 70.667 C 8.612 70.667,8.640 70.592,8.583 70.500 C 8.370 70.154,8.684 70.034,9.169 70.276 C 9.736 70.559,10.071 71.073,9.930 71.443 C 9.815 71.741,9.983 72.500,10.163 72.500 C 10.233 72.500,11.293 72.978,12.520 73.561 C 13.746 74.145,15.275 74.866,15.917 75.163 C 16.558 75.460,17.833 76.062,18.750 76.501 C 19.667 76.939,21.092 77.615,21.917 78.003 C 22.742 78.391,24.317 79.137,25.417 79.662 C 26.517 80.186,27.942 80.862,28.583 81.164 C 29.225 81.466,30.895 82.265,32.295 82.940 C 33.694 83.615,34.873 84.167,34.914 84.167 C 34.955 84.167,35.685 84.510,36.536 84.929 C 38.453 85.874,39.057 85.915,40.539 85.201 C 41.130 84.916,42.244 84.389,43.015 84.030 C 43.786 83.671,45.129 83.039,46.000 82.625 C 46.871 82.211,47.996 81.684,48.500 81.453 C 49.004 81.222,50.317 80.606,51.417 80.084 C 54.152 78.787,55.465 78.170,56.238 77.822 L 56.892 77.527 56.849 76.472 C 56.795 75.142,56.936 75.182,55.220 76.007 C 52.506 77.311,48.101 79.391,46.667 80.046 C 45.844 80.422,42.761 81.892,40.344 83.062 C 38.789 83.814,38.833 83.874,38.833 81.019 C 38.833 77.510,38.766 77.396,35.877 76.059 C 34.982 75.645,33.800 75.094,33.250 74.834 C 32.700 74.574,31.500 74.009,30.583 73.578 C 29.667 73.147,28.279 72.495,27.500 72.128 C 26.721 71.761,25.633 71.253,25.083 70.999 C 24.533 70.745,22.968 70.003,21.604 69.352 C 20.241 68.700,19.099 68.167,19.067 68.167 C 19.012 68.167,18.179 67.775,13.708 65.647 C 12.009 64.838,11.274 64.496,8.750 63.335 C 7.731 62.867,7.588 62.720,7.654 62.208 C 7.685 61.968,7.703 61.967,7.193 62.247 M23.927 62.394 C 25.367 63.085,28.183 64.415,32.083 66.247 C 33.000 66.678,34.387 67.344,35.167 67.728 L 36.583 68.425 36.634 69.213 C 36.694 70.141,36.359 70.251,35.224 69.675 C 34.281 69.197,29.993 67.167,29.927 67.167 C 29.895 67.167,28.793 66.650,27.476 66.019 C 26.160 65.388,24.577 64.643,23.958 64.363 L 22.833 63.854 22.833 63.038 C 22.833 61.872,22.835 61.871,23.927 62.394 M9.827 66.106 C 10.758 66.656,11.045 67.521,10.429 67.924 C 9.939 68.245,9.233 67.963,8.775 67.264 C 8.108 66.247,8.792 65.495,9.827 66.106 M13.065 67.708 C 13.459 68.063,13.563 68.369,13.519 69.042 C 13.488 69.509,12.416 69.431,11.909 68.924 C 10.841 67.856,11.942 66.698,13.065 67.708 M301.500 71.667 L 301.500 75.333 304.583 75.333 L 307.667 75.333 307.667 71.667 L 307.667 68.000 304.583 68.000 L 301.500 68.000 301.500 71.667 M16.105 69.262 C 16.730 69.925,16.790 70.186,16.405 70.571 C 15.960 71.016,15.402 70.887,14.845 70.212 C 13.728 68.856,14.894 67.977,16.105 69.262 M25.855 73.978 C 27.356 74.700,29.033 75.491,29.583 75.738 C 30.828 76.296,33.841 77.726,35.405 78.500 L 36.583 79.083 36.634 79.979 C 36.698 81.088,36.758 81.096,33.613 79.595 C 32.378 79.005,30.854 78.283,30.225 77.990 C 29.597 77.697,28.408 77.137,27.583 76.745 C 26.758 76.353,25.352 75.690,24.458 75.273 L 22.833 74.514 22.833 73.702 C 22.833 73.016,22.921 72.667,23.091 72.667 C 23.111 72.667,24.355 73.257,25.855 73.978 M6.958 73.621 L 6.333 73.687 6.333 76.510 C 6.333 79.211,6.348 79.333,6.663 79.333 C 7.070 79.333,7.520 79.987,7.461 80.493 C 7.429 80.761,7.533 80.914,7.823 81.024 C 8.229 81.179,8.229 81.178,7.909 80.825 L 7.588 80.470 8.086 80.527 C 8.459 80.569,8.597 80.680,8.638 80.972 C 8.691 81.343,8.708 81.347,9.009 81.075 C 9.319 80.794,9.667 81.200,9.667 81.844 C 9.667 81.930,9.742 82.000,9.833 82.000 C 9.925 82.000,10.000 81.849,10.000 81.665 C 10.000 81.367,10.041 81.353,10.375 81.540 C 10.850 81.806,11.004 82.020,10.881 82.242 C 10.828 82.338,10.885 82.323,11.009 82.208 C 11.336 81.905,11.667 81.954,11.667 82.306 C 11.667 82.750,11.838 82.852,12.117 82.574 C 12.399 82.291,12.731 82.424,12.600 82.767 C 12.551 82.895,12.583 83.000,12.672 83.000 C 12.761 83.000,12.833 83.112,12.833 83.250 C 12.833 83.387,12.912 83.500,13.007 83.500 C 13.103 83.500,13.159 83.392,13.132 83.261 C 13.070 82.957,13.160 82.922,13.625 83.070 C 13.843 83.139,14.000 83.324,14.000 83.511 C 14.000 83.688,14.075 83.833,14.167 83.833 C 14.258 83.833,14.333 83.758,14.333 83.667 C 14.333 83.575,14.446 83.500,14.583 83.500 C 14.721 83.500,14.833 83.641,14.833 83.813 C 14.833 83.985,14.948 84.221,15.087 84.336 C 15.298 84.511,15.324 84.503,15.242 84.290 C 15.188 84.149,15.238 83.975,15.354 83.904 C 15.473 83.830,15.592 83.859,15.629 83.970 C 15.665 84.078,15.830 84.167,15.996 84.167 C 16.162 84.167,16.340 84.278,16.393 84.414 C 16.446 84.554,16.598 84.619,16.742 84.563 C 17.059 84.442,17.300 84.981,17.010 85.160 C 16.867 85.249,16.909 85.314,17.147 85.376 C 17.345 85.428,17.474 85.390,17.453 85.284 C 17.433 85.185,17.548 85.074,17.708 85.039 C 17.908 84.996,18.000 85.078,18.000 85.301 C 18.000 85.480,18.127 85.729,18.281 85.855 C 18.527 86.054,18.549 86.047,18.455 85.797 C 18.336 85.480,18.582 85.229,18.748 85.497 C 18.806 85.590,18.999 85.667,19.177 85.667 C 19.354 85.667,19.500 85.772,19.500 85.901 C 19.500 86.049,19.616 86.105,19.815 86.053 C 20.203 85.952,20.427 86.270,20.178 86.570 C 20.036 86.741,20.068 86.812,20.317 86.877 C 20.533 86.934,20.615 86.892,20.561 86.753 C 20.517 86.637,20.600 86.497,20.747 86.441 C 20.905 86.380,21.044 86.439,21.090 86.586 C 21.132 86.722,21.202 86.946,21.245 87.083 C 21.346 87.406,21.667 87.409,21.667 87.087 C 21.667 86.885,21.741 86.874,22.083 87.030 C 22.330 87.142,22.500 87.359,22.500 87.560 C 22.500 87.824,22.544 87.856,22.700 87.700 C 23.004 87.396,23.333 87.461,23.333 87.823 C 23.333 88.235,23.601 88.411,23.727 88.082 C 23.861 87.735,24.167 87.771,24.167 88.133 C 24.167 88.448,24.466 88.833,24.710 88.833 C 24.789 88.833,24.810 88.764,24.757 88.678 C 24.609 88.439,24.876 88.357,25.292 88.514 C 25.506 88.595,25.667 88.797,25.667 88.985 C 25.667 89.166,25.742 89.360,25.833 89.417 C 25.925 89.473,26.000 89.403,26.000 89.260 C 26.000 89.117,26.113 89.000,26.250 89.000 C 26.389 89.000,26.500 89.148,26.500 89.333 C 26.500 89.685,26.742 89.782,26.917 89.500 C 27.084 89.229,27.333 89.309,27.333 89.633 C 27.333 89.942,27.631 90.333,27.867 90.333 C 27.940 90.333,28.000 90.223,28.000 90.089 C 28.000 89.631,28.742 90.076,28.833 90.588 C 28.879 90.845,29.029 91.093,29.167 91.138 C 29.367 91.205,29.377 91.173,29.218 90.980 C 28.980 90.691,29.205 90.234,29.496 90.414 C 29.606 90.482,29.660 90.674,29.616 90.841 C 29.571 91.014,29.642 91.186,29.782 91.239 C 30.106 91.364,30.171 91.358,30.147 91.208 C 30.094 90.872,30.208 90.846,30.680 91.090 C 31.005 91.258,31.160 91.444,31.102 91.595 C 31.052 91.726,31.083 91.833,31.172 91.833 C 31.261 91.833,31.333 91.753,31.333 91.654 C 31.333 91.380,31.914 91.554,31.939 91.836 C 31.951 91.972,31.970 92.172,31.981 92.280 C 31.991 92.389,32.150 92.520,32.333 92.572 C 32.517 92.624,32.817 92.709,33.000 92.761 C 33.225 92.825,33.333 92.776,33.333 92.610 C 33.333 92.256,34.024 92.471,34.125 92.857 C 34.183 93.080,34.307 93.138,34.579 93.070 C 34.897 92.990,34.972 93.059,35.073 93.529 C 35.186 94.051,35.201 94.062,35.341 93.708 C 35.511 93.279,35.833 93.205,35.833 93.595 C 35.833 93.739,35.940 93.964,36.071 94.095 C 36.338 94.362,36.571 94.417,36.424 94.178 C 36.276 93.939,36.543 93.857,36.958 94.014 C 37.190 94.102,37.333 94.296,37.333 94.520 C 37.333 94.863,37.352 94.868,37.638 94.609 C 37.806 94.457,38.098 94.333,38.287 94.333 C 38.782 94.333,38.833 94.068,38.833 91.478 C 38.833 88.358,38.649 88.024,36.333 86.952 C 35.646 86.634,34.296 86.002,33.333 85.548 C 32.371 85.094,31.321 84.603,31.000 84.458 C 30.679 84.313,29.517 83.766,28.417 83.244 C 26.077 82.133,23.954 81.137,22.667 80.546 C 22.162 80.314,21.037 79.788,20.167 79.377 C 17.405 78.071,15.780 77.308,14.750 76.833 C 14.200 76.580,12.925 75.980,11.917 75.500 C 8.600 73.922,7.683 73.500,7.633 73.528 C 7.606 73.543,7.302 73.585,6.958 73.621 M9.822 76.770 C 10.073 76.918,10.420 77.302,10.593 77.622 L 10.906 78.205 10.518 78.519 C 9.982 78.953,9.780 78.918,9.095 78.272 C 7.991 77.231,8.572 76.031,9.822 76.770 M13.061 78.439 C 13.932 79.310,13.467 80.514,12.465 79.983 C 11.677 79.566,11.201 78.521,11.611 78.111 C 11.872 77.850,12.647 78.025,13.061 78.439 M16.105 79.929 C 16.869 80.739,16.724 81.500,15.805 81.500 C 15.378 81.500,14.333 80.471,14.333 80.050 C 14.333 79.163,15.319 79.095,16.105 79.929 M25.087 84.310 C 26.001 84.756,27.125 85.289,27.583 85.495 C 28.042 85.700,29.017 86.154,29.750 86.502 C 30.483 86.851,32.133 87.630,33.417 88.233 C 36.763 89.807,36.575 89.665,36.634 90.655 C 36.705 91.850,37.337 92.052,29.945 88.521 C 28.768 87.960,27.782 87.500,27.752 87.500 C 27.723 87.500,26.604 86.978,25.266 86.341 L 22.833 85.182 22.833 84.341 C 22.833 83.264,22.936 83.263,25.087 84.310 M32.667 92.167 C 32.667 92.518,32.424 92.615,32.250 92.333 C 32.128 92.137,32.286 91.833,32.510 91.833 C 32.596 91.833,32.667 91.983,32.667 92.167 " stroke="none" fill="#4363fb" fill-rule="evenodd"></path><path id="path1" d="M30.816 16.072 C 30.777 16.112,30.534 16.173,30.276 16.208 C 30.019 16.242,29.748 16.369,29.673 16.490 C 29.598 16.611,29.455 16.659,29.355 16.597 C 29.255 16.535,28.891 16.675,28.548 16.909 C 28.204 17.142,27.790 17.333,27.628 17.333 C 27.466 17.333,27.333 17.408,27.333 17.500 C 27.333 17.592,27.183 17.667,27.000 17.667 C 26.817 17.667,26.667 17.742,26.667 17.833 C 26.667 17.925,26.487 18.000,26.268 18.000 C 26.048 18.000,25.824 18.117,25.769 18.261 C 25.714 18.404,25.537 18.505,25.376 18.485 C 24.996 18.438,24.465 18.665,24.234 18.973 C 24.123 19.121,23.964 19.164,23.833 19.083 C 23.691 18.995,23.656 19.014,23.731 19.136 C 23.802 19.251,23.668 19.366,23.382 19.435 C 23.126 19.496,22.826 19.617,22.716 19.704 C 22.605 19.791,22.446 19.820,22.362 19.768 C 22.278 19.716,22.040 19.820,21.833 20.000 C 21.626 20.180,21.392 20.286,21.312 20.237 C 21.232 20.187,21.167 20.218,21.167 20.305 C 21.167 20.393,20.979 20.511,20.750 20.568 C 20.521 20.626,20.333 20.747,20.333 20.837 C 20.333 20.926,20.181 21.000,19.995 21.000 C 19.809 21.000,19.613 21.112,19.560 21.250 C 19.508 21.387,19.351 21.500,19.212 21.500 C 19.006 21.500,18.998 21.546,19.167 21.750 C 19.337 21.955,19.325 22.000,19.104 22.000 C 18.955 22.000,18.833 21.925,18.833 21.833 C 18.833 21.742,18.721 21.667,18.583 21.667 C 18.446 21.667,18.333 21.733,18.333 21.814 C 18.333 21.895,18.171 22.004,17.973 22.055 C 17.660 22.137,17.642 22.186,17.838 22.422 C 18.041 22.667,18.006 22.683,17.479 22.584 C 16.978 22.490,16.818 22.547,16.347 22.987 C 16.045 23.269,15.738 23.500,15.665 23.500 C 15.591 23.500,15.575 23.669,15.628 23.875 C 15.715 24.213,15.696 24.227,15.437 24.014 C 15.183 23.806,15.139 23.819,15.058 24.128 C 15.008 24.320,14.863 24.517,14.735 24.566 C 14.557 24.634,14.542 24.756,14.672 25.096 C 14.815 25.472,14.800 25.523,14.571 25.435 C 14.390 25.366,14.274 25.441,14.215 25.666 C 14.167 25.850,14.053 26.000,13.961 26.000 C 13.869 26.000,13.832 26.145,13.878 26.321 C 13.954 26.609,13.919 26.623,13.546 26.453 C 13.202 26.296,13.094 26.312,12.922 26.548 C 12.807 26.705,12.553 26.833,12.357 26.833 C 12.160 26.833,12.000 26.916,12.000 27.018 C 12.000 27.119,11.885 27.158,11.744 27.104 C 11.598 27.048,11.447 27.112,11.393 27.252 C 11.341 27.387,11.220 27.450,11.124 27.390 C 11.028 27.331,10.859 27.406,10.748 27.558 C 10.637 27.709,10.354 27.849,10.118 27.869 C 9.883 27.888,9.704 27.977,9.720 28.067 C 9.737 28.157,9.600 28.258,9.417 28.292 C 9.233 28.325,8.971 28.398,8.833 28.453 C 8.696 28.508,8.527 28.541,8.458 28.526 C 8.390 28.512,8.352 28.590,8.375 28.701 C 8.398 28.811,8.248 28.914,8.042 28.930 C 7.358 28.982,7.313 28.999,7.417 29.167 C 7.475 29.261,7.335 29.333,7.093 29.333 C 6.859 29.333,6.667 29.408,6.667 29.500 C 6.667 29.592,6.479 29.667,6.250 29.667 C 6.021 29.667,5.833 29.742,5.833 29.833 C 5.833 29.925,5.718 30.000,5.576 30.000 C 5.022 30.000,4.614 30.590,4.942 30.918 C 5.221 31.197,5.218 31.205,4.881 31.098 C 4.240 30.895,3.823 30.848,3.910 30.990 C 3.958 31.066,3.837 31.170,3.643 31.221 C 3.408 31.283,3.323 31.400,3.390 31.573 C 3.445 31.716,3.417 31.833,3.328 31.833 C 3.239 31.833,3.167 31.758,3.167 31.667 C 3.167 31.425,2.880 31.462,2.420 31.763 C 2.089 31.980,2.045 32.096,2.169 32.422 C 2.286 32.730,2.268 32.798,2.090 32.729 C 1.798 32.617,0.967 33.152,1.050 33.398 C 1.084 33.500,0.994 33.673,0.848 33.782 C 0.628 33.946,0.619 34.038,0.792 34.321 C 0.906 34.509,0.998 34.794,0.995 34.956 C 0.990 35.233,0.980 35.232,0.815 34.949 C 0.677 34.711,0.590 34.689,0.403 34.844 C 0.132 35.070,0.086 35.500,0.333 35.500 C 0.425 35.500,0.500 35.883,0.500 36.351 C 0.500 37.039,0.452 37.184,0.250 37.106 C 0.039 37.025,0.000 37.247,0.000 38.526 C 0.000 39.854,0.031 40.015,0.250 39.833 C 0.468 39.652,0.500 39.767,0.500 40.730 C 0.500 41.354,0.428 41.833,0.333 41.833 C 0.242 41.833,0.167 41.948,0.167 42.089 C 0.167 42.437,0.666 42.603,0.848 42.316 C 0.948 42.157,0.996 42.281,0.997 42.708 C 0.999 43.052,0.932 43.333,0.848 43.333 C 0.621 43.333,0.746 43.888,0.992 43.970 C 1.109 44.009,1.276 43.938,1.364 43.812 C 1.472 43.656,1.485 43.715,1.405 44.000 C 1.341 44.229,1.220 44.461,1.136 44.515 C 1.053 44.569,1.100 44.709,1.242 44.827 C 1.448 44.998,1.550 44.999,1.750 44.833 C 2.057 44.579,2.116 44.984,1.817 45.283 C 1.683 45.417,1.694 45.642,1.857 46.108 C 2.135 46.902,2.335 47.058,2.610 46.696 C 2.802 46.443,2.823 46.452,2.828 46.792 C 2.831 46.998,2.758 47.167,2.667 47.167 C 2.575 47.167,2.500 47.347,2.500 47.568 C 2.500 47.901,2.563 47.952,2.875 47.872 C 3.205 47.787,3.223 47.808,3.027 48.047 C 2.747 48.389,2.937 48.722,3.352 48.613 C 3.525 48.568,3.667 48.599,3.667 48.682 C 3.667 48.765,3.592 48.833,3.500 48.833 C 3.149 48.833,3.355 49.327,3.821 49.603 C 4.090 49.761,4.345 50.028,4.389 50.196 C 4.474 50.519,4.833 50.622,4.833 50.323 C 4.833 50.226,4.907 50.193,4.998 50.249 C 5.100 50.312,5.063 50.504,4.903 50.748 C 4.653 51.129,4.663 51.156,5.141 51.404 C 5.522 51.601,5.658 51.613,5.714 51.456 C 5.755 51.343,5.849 51.307,5.923 51.377 C 5.998 51.446,5.922 51.604,5.754 51.726 C 5.398 51.987,5.544 52.333,6.010 52.333 C 6.246 52.333,6.333 52.449,6.333 52.760 C 6.333 53.002,6.405 53.142,6.500 53.083 C 6.740 52.935,6.706 52.169,6.458 52.156 C 6.344 52.150,6.433 52.073,6.656 51.983 C 6.879 51.894,7.156 51.858,7.272 51.902 C 7.388 51.947,9.306 51.114,11.533 50.052 C 16.577 47.648,18.246 46.857,19.833 46.120 C 20.521 45.801,21.983 45.111,23.083 44.586 C 24.183 44.062,25.698 43.340,26.448 42.983 C 27.889 42.297,28.161 42.236,28.627 42.492 C 28.786 42.579,29.517 42.928,30.250 43.266 C 30.983 43.604,32.371 44.254,33.333 44.710 C 34.296 45.165,35.646 45.800,36.333 46.119 C 37.021 46.439,38.258 47.019,39.083 47.409 C 39.908 47.798,40.996 48.308,41.500 48.542 C 42.004 48.776,43.242 49.358,44.250 49.834 C 45.258 50.311,46.646 50.962,47.333 51.281 C 49.291 52.189,50.083 52.562,52.583 53.754 C 54.680 54.754,56.308 55.513,57.500 56.047 C 59.296 56.850,59.519 57.372,59.463 60.620 L 59.417 63.241 58.292 63.807 L 57.167 64.373 57.167 65.422 L 57.167 66.471 57.978 66.971 C 59.449 67.876,59.515 68.064,59.463 71.198 L 59.417 73.917 58.292 74.477 L 57.167 75.038 57.167 76.167 L 57.167 77.297 57.809 77.554 C 58.500 77.830,59.249 78.609,59.602 79.417 L 59.820 79.917 59.827 79.458 C 59.830 79.206,59.908 79.000,60.000 79.000 C 60.092 79.000,60.167 79.229,60.167 79.510 C 60.167 79.829,60.233 79.978,60.344 79.910 C 60.450 79.845,60.501 79.918,60.469 80.091 C 60.440 80.251,60.510 80.415,60.625 80.455 C 60.740 80.495,60.833 80.447,60.833 80.347 C 60.833 80.248,60.950 80.167,61.093 80.167 C 61.236 80.167,61.312 80.233,61.262 80.314 C 61.211 80.396,61.294 80.564,61.446 80.689 C 61.661 80.867,61.736 80.871,61.791 80.708 C 61.896 80.395,62.133 80.458,62.106 80.792 C 62.092 80.975,62.192 81.075,62.375 81.060 C 62.535 81.047,62.667 81.141,62.667 81.269 C 62.667 81.542,62.828 81.557,63.406 81.337 C 63.646 81.246,63.833 81.240,63.833 81.324 C 63.833 81.405,63.740 81.507,63.625 81.549 C 63.461 81.609,63.463 81.673,63.635 81.854 C 63.820 82.048,63.880 82.038,64.019 81.792 C 64.243 81.394,64.659 81.411,64.553 81.815 C 64.452 82.202,64.816 82.462,65.016 82.146 C 65.136 81.957,65.162 81.961,65.164 82.168 C 65.166 82.392,65.785 82.926,66.000 82.890 C 66.046 82.882,66.308 82.828,66.583 82.769 C 66.985 82.683,67.025 82.697,66.788 82.841 C 66.431 83.058,66.561 83.333,67.020 83.333 C 67.203 83.333,67.307 83.258,67.250 83.167 C 67.193 83.075,67.269 83.000,67.418 83.000 C 67.619 83.000,67.660 83.092,67.576 83.356 C 67.477 83.670,67.515 83.703,67.898 83.629 C 68.209 83.570,68.333 83.617,68.333 83.794 C 68.333 83.980,68.457 84.017,68.833 83.942 C 69.298 83.849,69.414 83.941,69.358 84.359 C 69.338 84.513,69.681 84.438,70.130 84.192 C 70.489 83.994,70.505 84.007,70.404 84.408 C 70.295 84.843,70.686 85.040,70.917 84.667 C 71.127 84.326,72.144 84.467,72.051 84.824 C 71.985 85.074,72.046 85.142,72.316 85.122 C 72.509 85.108,72.667 85.037,72.667 84.965 C 72.667 84.753,74.474 84.814,74.831 85.037 C 75.091 85.199,75.202 85.198,75.369 85.031 C 75.540 84.860,75.533 84.789,75.332 84.662 C 75.146 84.544,75.215 84.504,75.611 84.503 C 75.901 84.501,76.168 84.588,76.204 84.697 C 76.243 84.812,76.394 84.846,76.570 84.778 C 76.818 84.683,76.834 84.618,76.662 84.411 C 76.372 84.061,76.600 83.892,76.957 84.192 C 77.352 84.523,77.762 84.481,77.700 84.115 C 77.659 83.879,77.756 83.829,78.200 83.857 C 78.502 83.877,78.938 83.789,79.167 83.662 C 79.396 83.536,79.705 83.450,79.854 83.473 C 80.004 83.495,80.170 83.398,80.224 83.257 C 80.278 83.116,80.465 83.000,80.639 83.000 C 80.813 83.000,81.151 82.846,81.390 82.658 C 81.629 82.470,81.990 82.284,82.192 82.245 C 82.394 82.206,82.608 82.095,82.668 81.998 C 82.728 81.901,82.902 81.870,83.055 81.929 C 83.208 81.988,83.333 81.958,83.333 81.863 C 83.333 81.672,84.258 81.167,84.609 81.167 C 84.732 81.167,84.833 81.107,84.833 81.033 C 84.833 80.924,85.868 80.451,86.167 80.424 C 86.212 80.420,86.487 80.248,86.776 80.041 C 87.065 79.835,87.446 79.667,87.623 79.667 C 87.800 79.667,88.001 79.610,88.069 79.542 C 88.188 79.423,88.248 79.405,88.677 79.354 C 88.774 79.343,88.810 79.264,88.757 79.178 C 88.705 79.093,88.925 78.928,89.247 78.812 C 89.570 78.695,89.833 78.510,89.833 78.401 C 89.833 78.292,89.954 78.156,90.101 78.100 C 90.272 78.034,90.329 77.895,90.258 77.712 C 90.198 77.555,90.199 77.477,90.261 77.539 C 90.397 77.675,90.726 77.362,90.883 76.948 C 90.946 76.782,91.063 76.686,91.142 76.735 C 91.221 76.784,91.267 76.644,91.242 76.423 C 91.213 76.154,91.269 76.050,91.412 76.105 C 91.645 76.194,91.928 75.121,91.748 74.830 C 91.693 74.740,91.726 74.667,91.823 74.667 C 91.940 74.667,92.000 73.840,92.000 72.250 C 92.000 70.921,91.944 69.833,91.875 69.833 C 91.806 69.833,91.740 69.627,91.727 69.375 C 91.699 68.794,91.597 68.375,91.449 68.227 C 91.386 68.163,91.333 67.854,91.333 67.540 C 91.333 67.100,91.253 66.948,90.984 66.877 C 90.699 66.803,90.652 66.697,90.731 66.303 C 90.799 65.964,90.754 65.793,90.580 65.726 C 90.445 65.674,90.333 65.452,90.333 65.232 C 90.333 65.013,90.261 64.833,90.173 64.833 C 90.085 64.833,89.834 64.459,89.615 64.002 C 89.018 62.755,89.000 62.916,89.000 69.361 L 89.000 75.333 85.117 75.333 C 82.319 75.333,81.177 75.277,81.033 75.133 C 80.884 74.984,80.833 73.144,80.833 67.883 L 80.833 60.833 79.835 60.833 L 78.837 60.833 78.793 67.958 L 78.750 75.083 74.708 75.128 L 70.667 75.173 70.667 58.003 L 70.667 40.833 72.073 40.833 C 73.603 40.833,73.910 40.668,73.351 40.147 C 73.158 39.968,73.000 39.865,73.000 39.920 C 73.000 39.976,72.775 39.774,72.500 39.473 C 72.225 39.172,72.000 38.991,72.000 39.072 C 72.000 39.152,71.860 39.056,71.689 38.859 C 71.518 38.661,71.309 38.500,71.226 38.500 C 71.143 38.500,70.776 38.203,70.412 37.840 C 70.028 37.457,69.641 37.213,69.491 37.258 C 69.348 37.300,69.070 37.185,68.873 37.001 C 68.675 36.817,68.433 36.667,68.335 36.667 C 68.237 36.667,68.111 36.550,68.057 36.407 C 68.002 36.264,67.851 36.188,67.722 36.238 C 67.593 36.287,67.447 36.222,67.398 36.094 C 67.343 35.950,67.152 35.888,66.904 35.933 C 66.646 35.980,66.500 35.928,66.500 35.790 C 66.500 35.670,66.294 35.556,66.042 35.535 C 65.790 35.514,65.558 35.423,65.528 35.332 C 65.497 35.241,65.260 35.167,65.000 35.167 C 64.425 35.167,63.975 35.009,64.077 34.843 C 64.119 34.776,63.699 34.752,63.145 34.789 C 62.355 34.843,62.067 34.795,61.818 34.570 C 61.633 34.402,61.500 34.362,61.500 34.474 C 61.500 34.734,61.047 34.720,60.955 34.458 C 60.901 34.306,60.794 34.328,60.553 34.542 C 60.122 34.923,59.508 34.923,59.475 34.542 C 59.461 34.381,59.438 34.137,59.425 34.000 C 59.412 33.862,59.311 33.769,59.201 33.792 C 59.090 33.815,59.000 33.683,59.000 33.500 C 59.000 33.317,58.847 33.014,58.661 32.827 C 58.474 32.641,58.367 32.414,58.423 32.323 C 58.479 32.233,58.425 32.179,58.304 32.204 C 58.183 32.229,58.083 32.137,58.083 32.000 C 58.083 31.863,57.971 31.662,57.833 31.555 C 57.696 31.448,57.574 31.279,57.563 31.180 C 57.551 31.081,57.532 30.921,57.521 30.823 C 57.509 30.726,57.430 30.690,57.345 30.743 C 57.260 30.795,57.165 30.668,57.133 30.461 C 57.101 30.253,56.978 30.104,56.858 30.129 C 56.705 30.162,56.676 30.064,56.758 29.796 C 56.822 29.587,56.819 29.470,56.750 29.535 C 56.682 29.599,56.438 29.374,56.209 29.035 C 55.980 28.695,55.689 28.357,55.563 28.283 C 55.437 28.210,55.333 28.004,55.333 27.825 C 55.333 27.646,55.221 27.500,55.083 27.500 C 54.946 27.500,54.833 27.383,54.833 27.240 C 54.833 27.097,54.764 27.023,54.679 27.076 C 54.593 27.129,54.500 27.002,54.470 26.794 C 54.441 26.587,54.376 26.454,54.327 26.500 C 54.277 26.546,54.004 26.345,53.718 26.053 C 53.433 25.761,53.146 25.574,53.079 25.636 C 53.013 25.699,53.010 25.581,53.074 25.375 C 53.154 25.115,53.120 25.000,52.965 25.000 C 52.841 25.000,52.461 24.729,52.120 24.398 C 51.779 24.066,51.500 23.841,51.500 23.898 C 51.500 23.954,51.350 23.850,51.167 23.667 C 50.983 23.483,50.833 23.254,50.833 23.157 C 50.833 23.060,50.764 23.023,50.679 23.076 C 50.594 23.128,50.478 23.027,50.422 22.851 C 50.303 22.474,48.758 21.268,48.163 21.088 C 47.936 21.019,47.587 20.779,47.388 20.554 C 47.189 20.329,46.967 20.155,46.894 20.168 C 46.822 20.181,46.720 20.068,46.667 19.917 C 46.614 19.766,46.536 19.653,46.493 19.666 C 46.334 19.716,45.528 19.346,45.421 19.174 C 45.360 19.075,45.251 19.032,45.177 19.077 C 45.104 19.122,44.910 19.011,44.746 18.829 C 44.582 18.648,44.313 18.500,44.148 18.500 C 43.983 18.500,43.572 18.313,43.234 18.083 C 42.896 17.854,42.518 17.667,42.393 17.667 C 42.269 17.667,42.167 17.592,42.167 17.500 C 42.167 17.408,42.022 17.333,41.845 17.333 C 41.668 17.333,41.406 17.215,41.262 17.071 C 41.118 16.927,41.000 16.853,41.000 16.907 C 41.000 16.961,40.736 16.894,40.413 16.759 C 40.090 16.624,39.716 16.555,39.584 16.606 C 39.451 16.657,39.216 16.573,39.061 16.418 C 38.895 16.253,38.620 16.169,38.386 16.213 C 38.169 16.255,37.952 16.224,37.903 16.144 C 37.815 16.002,30.957 15.932,30.816 16.072 M78.845 50.375 L 78.833 53.000 79.593 53.000 C 80.012 53.000,80.311 52.931,80.258 52.847 C 80.206 52.763,80.132 52.227,80.094 51.656 C 80.055 51.085,79.941 50.567,79.841 50.505 C 79.740 50.442,79.641 50.154,79.621 49.863 C 79.600 49.572,79.529 49.334,79.463 49.334 C 79.397 49.333,79.234 48.977,79.100 48.542 C 78.863 47.770,78.856 47.815,78.845 50.375 M8.910 55.677 C 8.606 56.170,9.684 57.382,10.164 57.085 C 10.407 56.935,10.243 56.197,9.878 55.792 C 9.585 55.466,9.078 55.406,8.910 55.677 M11.944 56.944 C 11.521 57.367,12.321 58.590,12.943 58.472 C 13.463 58.373,13.404 57.756,12.829 57.272 C 12.287 56.815,12.131 56.758,11.944 56.944 M14.840 58.409 C 14.417 58.918,15.562 60.171,16.026 59.707 C 16.299 59.435,15.984 58.667,15.497 58.415 C 15.100 58.210,15.006 58.209,14.840 58.409 M6.877 58.881 C 6.927 59.134,7.182 59.327,7.472 59.331 C 7.808 59.335,7.616 58.967,7.202 58.814 C 6.948 58.720,6.849 58.740,6.877 58.881 M9.154 60.194 C 9.029 60.756,9.035 61.002,9.177 61.090 C 9.293 61.161,9.284 61.275,9.151 61.436 C 8.883 61.759,9.093 61.935,9.421 61.663 C 9.731 61.406,9.696 60.313,9.375 60.207 C 9.260 60.170,9.161 60.164,9.154 60.194 M8.000 62.083 C 7.827 62.292,7.851 62.333,8.146 62.333 C 8.350 62.333,8.500 62.227,8.500 62.083 C 8.500 61.946,8.434 61.833,8.354 61.833 C 8.273 61.833,8.114 61.946,8.000 62.083 M8.910 66.343 C 8.729 66.636,9.161 67.444,9.607 67.647 C 10.378 67.998,10.602 67.386,9.988 66.606 C 9.634 66.156,9.106 66.028,8.910 66.343 M11.833 67.971 C 11.833 68.527,12.441 69.167,12.969 69.167 C 13.531 69.167,13.446 68.458,12.821 67.931 C 12.145 67.363,11.833 67.375,11.833 67.971 M6.625 69.110 C 6.740 69.157,6.833 69.301,6.833 69.431 C 6.833 69.560,6.901 69.667,6.984 69.667 C 7.067 69.667,7.096 69.517,7.048 69.333 C 7.000 69.150,6.839 69.006,6.689 69.013 C 6.516 69.022,6.493 69.057,6.625 69.110 M14.758 69.154 C 14.495 69.580,15.607 70.826,16.021 70.570 C 16.274 70.414,16.059 69.498,15.708 69.232 C 15.367 68.973,14.894 68.934,14.758 69.154 M9.000 70.657 C 9.000 70.743,9.079 70.862,9.175 70.922 C 9.292 70.994,9.279 71.117,9.133 71.297 C 8.958 71.513,8.958 71.539,9.132 71.435 C 9.294 71.337,9.320 71.410,9.239 71.736 C 9.156 72.065,9.194 72.167,9.399 72.167 C 9.726 72.167,9.780 71.013,9.467 70.700 C 9.227 70.461,9.000 70.440,9.000 70.657 M8.910 77.010 C 8.727 77.307,9.163 78.112,9.620 78.320 C 10.158 78.565,10.388 78.361,10.240 77.770 C 10.067 77.081,9.180 76.574,8.910 77.010 M11.833 78.638 C 11.833 79.537,13.148 80.254,13.305 79.440 C 13.377 79.065,12.552 78.167,12.135 78.167 C 11.915 78.167,11.833 78.294,11.833 78.638 M14.859 79.719 C 14.549 80.093,15.150 81.072,15.732 81.138 C 16.191 81.191,16.209 81.169,16.108 80.666 C 15.948 79.867,15.204 79.303,14.859 79.719 M6.560 79.917 C 6.697 80.054,6.852 80.167,6.905 80.167 C 6.957 80.167,7.000 80.054,7.000 79.917 C 7.000 79.775,6.851 79.667,6.655 79.667 C 6.348 79.667,6.337 79.694,6.560 79.917 M59.333 84.578 C 59.333 84.727,59.431 84.785,59.583 84.727 C 59.721 84.674,59.833 84.564,59.833 84.482 C 59.833 84.400,59.721 84.333,59.583 84.333 C 59.446 84.333,59.333 84.443,59.333 84.578 M58.273 85.250 C 58.215 85.402,58.273 85.500,58.422 85.500 C 58.557 85.500,58.667 85.388,58.667 85.250 C 58.667 85.112,58.600 85.000,58.518 85.000 C 58.436 85.000,58.326 85.112,58.273 85.250 M56.292 86.126 C 56.131 86.162,56.000 86.298,56.000 86.429 C 56.000 86.735,56.127 86.730,56.448 86.409 C 56.746 86.111,56.703 86.035,56.292 86.126 M55.167 86.750 C 55.167 86.888,55.242 87.000,55.333 87.000 C 55.425 87.000,55.500 86.888,55.500 86.750 C 55.500 86.612,55.425 86.500,55.333 86.500 C 55.242 86.500,55.167 86.612,55.167 86.750 M52.917 87.667 C 52.729 87.970,53.007 88.183,53.261 87.930 C 53.392 87.798,53.500 87.648,53.500 87.595 C 53.500 87.433,53.025 87.491,52.917 87.667 M50.667 88.937 C 50.667 89.169,50.709 89.175,50.958 88.984 C 51.119 88.861,51.281 88.740,51.319 88.714 C 51.358 88.688,51.226 88.667,51.028 88.667 C 50.806 88.667,50.667 88.771,50.667 88.937 M49.833 89.250 C 49.833 89.388,49.908 89.500,50.000 89.500 C 50.092 89.500,50.167 89.388,50.167 89.250 C 50.167 89.112,50.092 89.000,50.000 89.000 C 49.908 89.000,49.833 89.112,49.833 89.250 M47.558 90.257 C 47.412 90.636,47.612 90.745,47.909 90.448 C 48.234 90.123,48.235 90.000,47.911 90.000 C 47.771 90.000,47.612 90.116,47.558 90.257 M44.410 91.678 C 44.349 91.776,44.340 91.896,44.389 91.944 C 44.508 92.064,44.833 91.853,44.833 91.657 C 44.833 91.444,44.546 91.458,44.410 91.678 M41.271 93.133 C 41.226 93.206,41.248 93.362,41.321 93.480 C 41.418 93.637,41.478 93.601,41.545 93.347 C 41.632 93.012,41.439 92.861,41.271 93.133 M39.111 94.111 C 38.959 94.263,38.970 94.667,39.127 94.667 C 39.196 94.667,39.347 94.517,39.461 94.333 C 39.670 93.999,39.397 93.826,39.111 94.111 " stroke="none" fill="#d0d5f6" fill-rule="evenodd"></path><path id="path2" d="M26.583 42.910 C 24.601 43.870,20.805 45.676,19.667 46.200 C 18.532 46.722,18.052 46.950,11.617 50.009 L 7.650 51.895 8.784 52.428 C 9.407 52.721,10.742 53.353,11.750 53.832 C 15.165 55.454,18.321 56.934,19.833 57.624 C 20.337 57.854,21.500 58.398,22.417 58.834 C 24.018 59.596,24.902 60.012,28.000 61.464 C 30.843 62.796,32.448 63.551,33.917 64.248 C 34.742 64.640,35.980 65.221,36.669 65.538 C 38.949 66.590,39.208 67.098,39.134 70.383 C 39.106 71.639,39.148 72.667,39.227 72.667 C 39.306 72.667,39.793 72.450,40.310 72.185 C 41.396 71.628,44.841 69.980,45.976 69.473 C 46.402 69.283,47.425 68.806,48.250 68.413 C 49.075 68.020,50.575 67.309,51.583 66.833 C 52.592 66.357,53.942 65.712,54.585 65.400 C 55.227 65.088,55.837 64.833,55.939 64.833 C 56.042 64.833,56.222 64.717,56.340 64.576 C 56.457 64.434,56.652 64.356,56.773 64.402 C 56.894 64.449,57.538 64.204,58.204 63.858 L 59.417 63.229 59.463 60.615 C 59.519 57.373,59.295 56.850,57.500 56.047 C 56.308 55.513,54.680 54.754,52.583 53.754 C 50.083 52.562,49.291 52.189,47.333 51.281 C 46.646 50.962,45.258 50.311,44.250 49.834 C 43.242 49.358,42.004 48.776,41.500 48.542 C 40.996 48.308,39.908 47.798,39.083 47.409 C 38.258 47.019,37.021 46.439,36.333 46.119 C 35.646 45.800,34.296 45.165,33.333 44.710 C 32.371 44.254,30.983 43.604,30.250 43.266 C 29.517 42.928,28.786 42.579,28.627 42.492 C 28.166 42.239,27.824 42.309,26.583 42.910 M8.833 61.583 C 8.833 61.721,8.758 61.833,8.667 61.833 C 8.575 61.833,8.500 61.946,8.500 62.083 C 8.500 62.225,8.351 62.333,8.157 62.333 C 7.940 62.333,7.857 62.263,7.933 62.141 C 8.006 62.022,7.978 61.994,7.859 62.067 C 7.466 62.310,7.691 62.618,8.542 63.000 C 9.023 63.217,10.242 63.784,11.250 64.262 C 12.258 64.740,13.646 65.392,14.333 65.712 C 15.021 66.032,16.371 66.668,17.333 67.127 C 18.296 67.585,19.421 68.112,19.833 68.299 C 20.727 68.702,22.733 69.639,25.250 70.829 C 26.258 71.306,27.571 71.924,28.167 72.201 C 28.762 72.479,30.037 73.081,31.000 73.538 C 31.962 73.995,33.162 74.558,33.667 74.788 C 39.262 77.342,39.218 77.292,39.137 80.932 C 39.108 82.253,39.141 83.334,39.211 83.334 C 39.281 83.333,39.468 83.262,39.627 83.176 C 39.786 83.089,40.779 82.613,41.833 82.118 C 42.887 81.623,44.350 80.933,45.083 80.585 C 45.817 80.237,47.129 79.620,48.000 79.213 C 50.135 78.217,51.832 77.405,54.417 76.145 C 55.608 75.564,56.683 75.099,56.804 75.111 C 56.926 75.124,57.563 74.860,58.221 74.525 L 59.417 73.917 59.462 71.167 L 59.507 68.417 59.022 67.833 C 58.316 66.986,57.357 66.500,57.143 66.882 C 57.055 67.039,56.908 67.167,56.815 67.167 C 56.723 67.167,56.033 67.457,55.282 67.812 C 53.500 68.655,51.645 69.523,50.042 70.264 C 49.331 70.593,48.075 71.183,47.250 71.576 C 46.425 71.969,45.413 72.443,45.000 72.630 C 44.587 72.817,43.425 73.359,42.417 73.834 C 41.408 74.309,40.331 74.815,40.023 74.960 C 39.251 75.322,38.187 75.288,37.405 74.878 C 37.045 74.688,36.450 74.401,36.083 74.239 C 35.717 74.078,34.254 73.388,32.833 72.706 C 31.412 72.025,29.688 71.205,29.000 70.885 C 27.191 70.043,25.308 69.156,23.500 68.295 C 22.629 67.881,21.392 67.296,20.750 66.996 C 20.108 66.696,18.758 66.058,17.750 65.579 C 15.465 64.495,13.887 63.750,11.750 62.750 C 10.833 62.321,9.960 61.859,9.808 61.724 C 9.624 61.560,9.497 61.537,9.423 61.656 C 9.255 61.928,8.951 61.867,9.060 61.583 C 9.113 61.446,9.084 61.333,8.995 61.333 C 8.906 61.333,8.833 61.446,8.833 61.583 M23.150 62.375 C 23.140 62.398,23.107 62.702,23.075 63.050 L 23.018 63.684 24.467 64.357 C 25.264 64.727,26.667 65.390,27.583 65.831 C 29.467 66.737,31.656 67.766,33.500 68.613 C 34.188 68.928,35.038 69.332,35.391 69.510 C 36.249 69.943,36.334 69.923,36.331 69.292 C 36.327 68.443,36.410 68.497,31.917 66.412 C 31.275 66.114,29.925 65.479,28.917 65.001 C 27.908 64.522,26.446 63.836,25.667 63.476 C 24.887 63.116,24.051 62.712,23.808 62.578 C 23.386 62.345,23.187 62.283,23.150 62.375 M8.607 72.417 C 8.470 72.554,8.183 72.668,7.970 72.669 C 7.658 72.671,7.631 72.703,7.833 72.836 C 8.052 72.980,8.053 73.020,7.839 73.157 C 7.640 73.285,7.671 73.343,8.006 73.472 C 8.524 73.671,10.208 74.443,12.390 75.484 C 13.321 75.928,14.496 76.480,15.000 76.711 C 16.075 77.203,18.692 78.430,20.583 79.329 C 21.317 79.677,22.442 80.207,23.083 80.507 C 23.725 80.806,25.327 81.565,26.643 82.192 C 27.959 82.820,29.060 83.333,29.088 83.333 C 29.117 83.333,30.027 83.753,31.112 84.266 C 34.505 85.872,35.379 86.283,36.667 86.881 C 37.989 87.494,38.695 88.106,38.995 88.899 C 39.213 89.477,39.205 93.957,38.985 94.093 C 38.902 94.144,38.838 94.313,38.844 94.468 C 38.852 94.672,38.896 94.647,39.005 94.375 C 39.088 94.169,39.275 94.000,39.421 94.000 C 39.567 94.000,39.640 94.075,39.583 94.167 C 39.388 94.482,39.785 94.333,40.226 93.925 C 40.596 93.581,40.669 93.561,40.680 93.800 C 40.688 93.973,40.726 94.003,40.777 93.875 C 40.823 93.760,40.971 93.667,41.105 93.667 C 41.244 93.667,41.327 93.542,41.299 93.375 C 41.261 93.147,41.350 93.094,41.708 93.131 C 42.039 93.166,42.167 93.104,42.167 92.910 C 42.167 92.697,42.272 92.663,42.667 92.750 C 42.974 92.818,43.167 92.793,43.167 92.685 C 43.167 92.589,43.269 92.550,43.395 92.598 C 43.521 92.646,43.741 92.569,43.883 92.426 C 44.026 92.283,44.279 92.166,44.446 92.164 C 44.701 92.162,44.710 92.136,44.501 92.004 C 44.292 91.872,44.288 91.814,44.481 91.632 C 44.661 91.461,44.724 91.460,44.785 91.625 C 44.899 91.935,45.105 91.880,45.570 91.415 C 45.800 91.185,46.047 91.006,46.119 91.018 C 46.470 91.076,46.667 90.976,46.667 90.740 C 46.667 90.597,46.747 90.530,46.845 90.590 C 46.943 90.651,46.975 90.824,46.918 90.975 C 46.839 91.181,46.890 91.167,47.123 90.917 C 47.294 90.733,47.484 90.452,47.545 90.292 C 47.662 89.984,48.167 89.882,48.167 90.167 C 48.167 90.258,48.279 90.333,48.417 90.333 C 48.554 90.333,48.648 90.276,48.625 90.205 C 48.532 89.918,49.078 89.569,49.518 89.634 C 49.916 89.692,49.966 89.654,49.886 89.351 C 49.833 89.149,49.873 89.000,49.981 89.000 C 50.083 89.000,50.167 89.075,50.167 89.167 C 50.167 89.258,50.279 89.333,50.417 89.333 C 50.558 89.333,50.667 89.184,50.667 88.988 C 50.667 88.733,50.764 88.650,51.042 88.672 C 51.581 88.713,52.167 88.495,52.167 88.254 C 52.167 88.122,52.320 88.075,52.586 88.126 C 52.919 88.190,52.984 88.152,52.902 87.938 C 52.836 87.768,52.908 87.628,53.098 87.555 C 53.273 87.488,53.424 87.522,53.462 87.637 C 53.556 87.919,53.833 87.879,53.833 87.583 C 53.833 87.446,53.946 87.333,54.083 87.333 C 54.221 87.333,54.333 87.255,54.333 87.159 C 54.333 87.064,54.427 86.998,54.542 87.012 C 54.980 87.069,55.167 86.991,55.167 86.750 C 55.167 86.447,55.362 86.428,55.639 86.705 C 55.802 86.868,55.864 86.837,55.938 86.554 C 56.036 86.176,56.611 85.917,56.708 86.207 C 56.740 86.304,56.878 86.264,57.029 86.114 C 57.175 85.968,57.340 85.896,57.397 85.952 C 57.454 86.009,57.500 85.923,57.500 85.760 C 57.500 85.568,57.586 85.497,57.745 85.559 C 57.888 85.613,58.100 85.498,58.250 85.285 C 58.432 85.026,58.546 84.976,58.634 85.116 C 58.876 85.503,59.421 85.248,59.369 84.773 C 59.335 84.468,59.399 84.333,59.577 84.333 C 59.925 84.333,59.952 80.271,59.609 79.453 C 59.143 78.342,57.497 76.997,57.179 77.467 C 57.063 77.638,56.415 77.985,55.083 78.589 C 53.701 79.216,52.397 79.823,50.250 80.839 C 49.242 81.316,48.004 81.895,47.500 82.126 C 46.996 82.358,45.908 82.865,45.083 83.254 C 44.258 83.643,42.833 84.313,41.917 84.744 C 41.000 85.175,40.070 85.615,39.850 85.722 C 39.094 86.090,38.133 85.922,36.487 85.134 C 34.897 84.373,33.537 83.729,30.667 82.375 C 29.796 81.965,27.958 81.086,26.583 80.423 C 25.208 79.760,23.783 79.083,23.417 78.919 C 22.465 78.492,19.910 77.285,17.583 76.161 C 16.483 75.630,15.058 74.957,14.417 74.665 C 11.909 73.525,10.070 72.610,9.782 72.360 C 9.532 72.142,9.424 72.134,9.140 72.311 C 8.952 72.429,8.848 72.444,8.909 72.346 C 9.070 72.086,8.897 72.126,8.607 72.417 M23.119 73.125 C 23.062 73.232,23.079 74.052,23.145 74.346 C 23.157 74.398,23.635 74.656,24.208 74.918 C 24.781 75.180,26.225 75.857,27.417 76.423 C 28.608 76.989,30.033 77.661,30.583 77.916 C 31.133 78.171,32.580 78.856,33.797 79.440 C 36.371 80.672,36.334 80.665,36.331 79.958 C 36.327 79.189,36.233 79.096,34.748 78.411 C 34.016 78.072,32.416 77.317,31.192 76.731 C 29.968 76.146,28.940 75.667,28.907 75.667 C 28.874 75.667,27.599 75.067,26.073 74.333 C 23.044 72.878,23.215 72.947,23.119 73.125 M23.062 84.042 C 23.117 84.248,23.163 84.571,23.164 84.761 C 23.167 85.114,23.205 85.134,28.167 87.461 C 29.037 87.869,30.275 88.453,30.917 88.758 C 36.727 91.519,36.333 91.390,36.333 90.527 C 36.333 89.922,36.286 89.865,35.458 89.453 C 33.910 88.685,29.314 86.500,29.245 86.500 C 29.209 86.500,28.295 86.078,27.214 85.563 C 22.839 83.475,22.917 83.503,23.062 84.042 " stroke="none" fill="#6cb4fb" fill-rule="evenodd"></path><path id="path3" d="M7.926 52.245 C 8.104 52.379,8.298 52.492,8.357 52.495 C 8.416 52.498,9.541 53.014,10.857 53.642 C 12.173 54.270,13.662 54.976,14.167 55.210 C 14.671 55.444,15.833 55.988,16.750 56.419 C 19.583 57.751,21.219 58.515,22.000 58.871 C 22.412 59.059,23.762 59.698,25.000 60.291 C 26.238 60.883,27.662 61.558,28.167 61.790 C 28.671 62.021,29.796 62.547,30.667 62.959 C 31.537 63.370,32.813 63.968,33.500 64.287 C 39.120 66.898,38.833 66.575,38.833 70.305 C 38.833 73.284,38.698 73.144,40.667 72.204 C 42.740 71.213,45.603 69.856,47.167 69.123 C 47.854 68.800,49.242 68.144,50.250 67.665 C 51.258 67.186,52.646 66.534,53.333 66.216 C 55.558 65.190,56.338 64.794,56.430 64.646 C 56.670 64.256,56.836 64.598,56.865 65.542 L 56.896 66.583 56.957 65.601 C 57.027 64.475,56.833 64.131,56.366 64.554 C 56.196 64.708,55.989 64.833,55.905 64.833 C 55.821 64.833,55.227 65.088,54.585 65.400 C 53.942 65.712,52.592 66.357,51.583 66.833 C 50.575 67.309,49.075 68.020,48.250 68.413 C 47.425 68.806,46.402 69.283,45.976 69.473 C 44.841 69.980,41.396 71.628,40.310 72.185 C 39.793 72.450,39.306 72.667,39.227 72.667 C 39.148 72.667,39.106 71.639,39.134 70.383 C 39.208 67.098,38.949 66.590,36.669 65.538 C 35.980 65.221,34.742 64.640,33.917 64.248 C 32.472 63.562,31.302 63.012,28.083 61.503 C 24.718 59.925,24.012 59.593,22.417 58.834 C 21.500 58.398,20.337 57.854,19.833 57.624 C 18.309 56.929,14.942 55.349,11.583 53.753 C 8.111 52.104,7.884 52.000,7.744 52.000 C 7.666 52.000,7.749 52.110,7.926 52.245 M11.565 56.905 C 11.515 57.035,11.502 57.317,11.536 57.530 C 11.581 57.814,11.620 57.751,11.682 57.292 C 11.769 56.645,11.723 56.492,11.565 56.905 M16.167 58.699 C 16.167 58.752,16.279 59.010,16.416 59.273 C 16.553 59.535,16.663 59.637,16.660 59.500 C 16.658 59.362,16.546 59.104,16.411 58.926 C 16.277 58.749,16.167 58.646,16.167 58.699 M79.957 60.788 L 80.996 60.848 81.040 67.966 L 81.083 75.083 85.000 75.083 L 88.917 75.083 88.920 69.875 L 88.924 64.667 88.876 69.833 L 88.829 75.000 84.999 75.000 L 81.170 75.000 81.127 67.875 L 81.083 60.750 80.000 60.739 L 78.917 60.727 79.957 60.788 M9.833 61.669 C 9.833 61.765,10.640 62.223,11.625 62.687 C 12.610 63.151,13.979 63.796,14.667 64.120 C 15.354 64.444,16.742 65.101,17.750 65.579 C 18.758 66.058,20.108 66.696,20.750 66.996 C 21.392 67.296,22.629 67.881,23.500 68.295 C 25.308 69.156,27.191 70.043,29.000 70.885 C 29.688 71.205,31.412 72.025,32.833 72.706 C 34.254 73.388,35.717 74.078,36.083 74.239 C 36.450 74.401,37.012 74.668,37.333 74.832 C 37.654 74.996,38.179 75.176,38.500 75.231 L 39.083 75.332 38.483 75.100 C 38.153 74.972,36.927 74.410,35.759 73.851 C 34.591 73.291,33.610 72.833,33.579 72.833 C 33.548 72.833,32.198 72.196,30.578 71.417 C 28.959 70.637,27.613 70.000,27.585 70.000 C 27.542 70.000,26.332 69.428,21.417 67.083 C 20.775 66.777,19.500 66.175,18.583 65.745 C 17.667 65.315,16.317 64.681,15.583 64.336 C 14.850 63.991,13.592 63.399,12.788 63.021 C 11.985 62.643,11.289 62.333,11.243 62.333 C 11.198 62.333,10.862 62.145,10.497 61.915 C 10.132 61.684,9.833 61.574,9.833 61.669 M22.944 62.111 C 22.883 62.172,22.833 62.589,22.833 63.038 L 22.833 63.854 23.958 64.363 C 24.577 64.643,26.160 65.388,27.476 66.019 C 28.793 66.650,29.895 67.167,29.927 67.167 C 29.993 67.167,34.281 69.197,35.224 69.675 C 36.359 70.251,36.694 70.141,36.634 69.213 L 36.583 68.425 35.167 67.728 C 34.387 67.344,33.000 66.678,32.083 66.247 C 28.183 64.415,25.367 63.085,23.927 62.394 C 22.978 61.939,23.085 61.970,22.944 62.111 M23.808 62.578 C 24.051 62.712,24.887 63.116,25.667 63.476 C 26.446 63.836,27.908 64.522,28.917 65.001 C 29.925 65.479,31.275 66.114,31.917 66.412 C 36.410 68.497,36.327 68.443,36.331 69.292 C 36.334 69.923,36.249 69.943,35.391 69.510 C 35.038 69.332,34.188 68.928,33.500 68.613 C 31.656 67.766,29.467 66.737,27.583 65.831 C 26.667 65.390,25.264 64.727,24.467 64.357 L 23.018 63.684 23.075 63.050 C 23.154 62.183,23.126 62.201,23.808 62.578 M7.667 62.752 C 7.667 62.799,8.154 63.061,8.750 63.335 C 11.274 64.496,12.009 64.838,13.708 65.647 C 18.179 67.775,19.012 68.167,19.067 68.167 C 19.099 68.167,20.241 68.700,21.604 69.352 C 22.968 70.003,24.533 70.745,25.083 70.999 C 25.633 71.253,26.721 71.761,27.500 72.128 C 28.279 72.495,29.667 73.147,30.583 73.578 C 31.500 74.009,32.700 74.574,33.250 74.834 C 33.800 75.094,34.982 75.645,35.877 76.059 C 38.766 77.396,38.833 77.510,38.833 81.019 C 38.833 83.874,38.789 83.814,40.344 83.062 C 44.291 81.152,46.190 80.254,48.734 79.096 C 49.458 78.766,50.012 78.457,49.964 78.409 C 49.916 78.361,49.024 78.725,47.980 79.218 C 46.937 79.711,45.558 80.362,44.917 80.666 C 44.275 80.970,42.887 81.624,41.833 82.118 C 40.779 82.613,39.786 83.089,39.627 83.176 C 39.468 83.262,39.281 83.333,39.211 83.334 C 39.141 83.334,39.108 82.253,39.137 80.932 C 39.218 77.292,39.262 77.342,33.667 74.788 C 33.162 74.558,31.962 73.995,31.000 73.538 C 30.037 73.081,28.762 72.479,28.167 72.201 C 27.571 71.924,26.258 71.306,25.250 70.829 C 22.733 69.639,20.727 68.702,19.833 68.299 C 19.421 68.112,18.296 67.585,17.333 67.127 C 16.371 66.668,15.058 66.049,14.417 65.749 C 13.775 65.450,12.500 64.851,11.583 64.418 C 7.891 62.674,7.667 62.578,7.667 62.752 M56.806 66.792 C 56.775 66.860,56.487 67.044,56.167 67.199 C 55.523 67.511,53.051 68.660,51.750 69.252 C 51.292 69.460,50.017 70.059,48.917 70.582 C 47.817 71.105,46.504 71.720,46.000 71.949 C 45.496 72.178,44.558 72.613,43.917 72.914 C 43.275 73.216,42.412 73.615,42.000 73.801 C 40.004 74.701,39.110 75.166,39.377 75.167 C 39.539 75.167,39.801 75.092,39.961 75.001 C 40.237 74.844,43.420 73.346,45.000 72.630 C 45.413 72.443,46.425 71.969,47.250 71.576 C 48.075 71.183,49.331 70.593,50.042 70.264 C 50.752 69.936,51.915 69.395,52.625 69.062 C 55.665 67.639,56.600 67.210,56.875 67.113 C 57.035 67.057,57.167 66.933,57.167 66.839 C 57.167 66.641,56.889 66.605,56.806 66.792 M11.565 67.571 C 11.515 67.702,11.502 67.983,11.536 68.196 C 11.581 68.481,11.620 68.418,11.682 67.958 C 11.769 67.311,11.723 67.159,11.565 67.571 M78.537 72.039 L 78.500 74.994 74.708 75.042 L 70.917 75.090 74.714 75.128 C 77.683 75.158,78.528 75.120,78.593 74.952 C 78.638 74.834,78.652 73.466,78.625 71.911 L 78.575 69.083 78.537 72.039 M9.853 72.204 C 9.834 72.484,10.957 73.090,14.417 74.665 C 15.058 74.957,16.483 75.630,17.583 76.161 C 19.357 77.018,21.474 78.023,23.381 78.915 C 23.728 79.078,24.045 79.177,24.086 79.136 C 24.126 79.096,23.467 78.736,22.621 78.337 C 21.775 77.938,20.071 77.130,18.833 76.542 C 17.596 75.954,16.283 75.333,15.917 75.163 C 15.550 74.993,14.135 74.325,12.771 73.677 C 11.408 73.030,10.232 72.500,10.158 72.500 C 10.085 72.500,9.990 72.369,9.948 72.208 C 9.877 71.937,9.871 71.937,9.853 72.204 M22.944 72.778 C 22.883 72.839,22.833 73.255,22.833 73.702 L 22.833 74.514 24.458 75.273 C 25.352 75.690,26.758 76.353,27.583 76.745 C 28.408 77.137,29.597 77.697,30.225 77.990 C 30.854 78.283,32.378 79.005,33.613 79.595 C 36.758 81.096,36.698 81.088,36.634 79.979 L 36.583 79.083 35.405 78.500 C 33.841 77.726,30.828 76.296,29.583 75.738 C 29.033 75.491,27.356 74.700,25.855 73.978 C 24.355 73.257,23.111 72.667,23.091 72.667 C 23.072 72.667,23.006 72.717,22.944 72.778 M26.073 74.333 C 27.599 75.067,28.874 75.667,28.907 75.667 C 28.940 75.667,29.968 76.146,31.192 76.731 C 32.416 77.317,34.016 78.072,34.748 78.411 C 36.233 79.096,36.327 79.189,36.331 79.958 C 36.334 80.665,36.371 80.672,33.797 79.440 C 32.580 78.856,31.133 78.171,30.583 77.916 C 30.033 77.661,28.608 76.989,27.417 76.423 C 26.225 75.857,24.781 75.180,24.208 74.918 C 23.635 74.656,23.157 74.398,23.145 74.346 C 23.021 73.792,23.078 73.000,23.243 73.000 C 23.273 73.000,24.547 73.600,26.073 74.333 M7.405 73.519 C 7.329 73.643,7.353 73.674,7.469 73.603 C 7.650 73.491,8.071 73.670,11.917 75.500 C 12.925 75.980,14.200 76.580,14.750 76.833 C 15.780 77.308,17.405 78.071,20.167 79.377 C 21.037 79.788,22.162 80.314,22.667 80.546 C 23.954 81.137,26.077 82.133,28.417 83.244 C 29.517 83.766,30.679 84.313,31.000 84.458 C 31.321 84.603,32.371 85.094,33.333 85.548 C 34.296 86.002,35.646 86.634,36.333 86.952 C 38.649 88.024,38.833 88.358,38.833 91.478 C 38.833 94.142,38.792 94.326,38.191 94.353 C 37.843 94.368,37.820 94.389,38.083 94.454 C 38.267 94.499,38.510 94.612,38.625 94.705 C 38.779 94.830,38.833 94.784,38.833 94.530 C 38.833 94.341,38.902 94.144,38.985 94.093 C 39.205 93.957,39.213 89.477,38.995 88.899 C 38.695 88.106,37.989 87.494,36.667 86.881 C 35.379 86.283,34.505 85.872,31.112 84.266 C 30.027 83.753,29.117 83.333,29.088 83.333 C 29.060 83.333,27.959 82.820,26.643 82.192 C 25.327 81.565,23.725 80.806,23.083 80.507 C 22.442 80.207,21.317 79.677,20.583 79.329 C 18.692 78.430,16.075 77.203,15.000 76.711 C 14.496 76.480,13.333 75.934,12.417 75.497 C 7.980 73.383,7.585 73.227,7.405 73.519 M54.500 76.087 C 53.354 76.659,51.904 77.366,51.276 77.659 C 50.649 77.952,50.173 78.228,50.218 78.273 C 50.293 78.349,51.215 77.931,55.220 76.007 C 56.936 75.182,56.795 75.141,56.850 76.478 C 56.892 77.508,56.879 77.544,56.405 77.747 C 56.136 77.862,55.242 78.275,54.417 78.665 C 53.592 79.055,52.204 79.711,51.333 80.122 C 49.036 81.208,47.571 81.890,46.265 82.481 C 45.632 82.768,45.158 83.047,45.213 83.102 C 45.267 83.156,45.598 83.050,45.947 82.867 C 46.297 82.684,46.996 82.348,47.500 82.120 C 48.004 81.892,49.242 81.316,50.250 80.839 C 52.276 79.880,53.576 79.274,55.083 78.586 C 57.287 77.580,57.104 77.773,57.037 76.523 C 56.972 75.293,56.906 74.989,56.714 75.024 C 56.642 75.037,55.646 75.516,54.500 76.087 M10.604 77.910 C 10.659 78.054,10.602 78.301,10.477 78.460 C 10.272 78.722,10.278 78.728,10.542 78.521 C 10.864 78.269,10.923 77.909,10.669 77.751 C 10.574 77.693,10.546 77.760,10.604 77.910 M11.565 78.238 C 11.515 78.369,11.502 78.650,11.536 78.863 C 11.581 79.148,11.620 79.085,11.682 78.625 C 11.769 77.978,11.723 77.825,11.565 78.238 M24.333 79.249 C 24.333 79.325,26.946 80.614,30.667 82.373 C 31.537 82.785,32.850 83.406,33.583 83.752 C 34.317 84.099,35.624 84.721,36.487 85.134 C 38.133 85.922,39.094 86.090,39.850 85.722 C 40.763 85.277,43.474 84.009,44.227 83.675 C 44.672 83.476,45.001 83.279,44.958 83.236 C 44.888 83.166,42.895 84.055,40.361 85.287 C 39.083 85.909,38.393 85.844,36.536 84.929 C 35.685 84.510,34.955 84.167,34.914 84.167 C 34.873 84.167,33.657 83.597,32.211 82.900 C 30.766 82.204,29.208 81.460,28.750 81.246 C 28.292 81.033,27.131 80.478,26.170 80.013 C 24.317 79.115,24.333 79.122,24.333 79.249 M8.115 80.619 C 8.315 80.656,8.514 80.796,8.556 80.930 C 8.605 81.084,8.623 81.065,8.607 80.878 C 8.590 80.687,8.434 80.578,8.165 80.567 C 7.823 80.554,7.814 80.563,8.115 80.619 M22.833 84.341 L 22.833 85.182 25.266 86.341 C 26.604 86.978,27.723 87.500,27.752 87.500 C 27.782 87.500,28.768 87.960,29.945 88.521 C 37.337 92.052,36.705 91.850,36.634 90.655 C 36.575 89.665,36.763 89.807,33.417 88.233 C 32.133 87.630,30.483 86.851,29.750 86.502 C 29.017 86.154,28.042 85.700,27.583 85.495 C 27.125 85.289,26.001 84.756,25.087 84.310 C 22.936 83.263,22.833 83.264,22.833 84.341 M24.204 84.146 C 24.779 84.410,26.134 85.047,27.214 85.563 C 28.295 86.078,29.209 86.500,29.245 86.500 C 29.314 86.500,33.910 88.685,35.458 89.453 C 36.286 89.865,36.333 89.922,36.333 90.527 C 36.333 91.390,36.727 91.519,30.917 88.758 C 30.275 88.453,29.037 87.869,28.167 87.461 C 23.205 85.134,23.167 85.114,23.164 84.761 C 23.163 84.571,23.117 84.248,23.062 84.042 C 22.935 83.569,22.947 83.570,24.204 84.146 M19.353 85.958 C 19.332 86.357,19.568 86.461,19.766 86.141 C 19.837 86.027,19.812 85.994,19.705 86.060 C 19.606 86.121,19.491 86.039,19.449 85.877 C 19.390 85.654,19.367 85.673,19.353 85.958 " stroke="none" fill="#5e9af8" fill-rule="evenodd"></path><path id="path4" d="M27.917 17.089 C 27.642 17.215,27.534 17.322,27.676 17.326 C 27.819 17.330,28.082 17.223,28.260 17.089 C 28.655 16.790,28.570 16.790,27.917 17.089 M62.292 34.784 C 62.498 34.824,62.835 34.824,63.042 34.784 C 63.248 34.745,63.079 34.712,62.667 34.712 C 62.254 34.712,62.085 34.745,62.292 34.784 M70.667 58.000 C 70.667 67.442,70.723 75.167,70.792 75.167 C 70.860 75.167,70.897 67.482,70.873 58.090 L 70.830 41.014 72.123 40.957 L 73.417 40.900 72.042 40.867 L 70.667 40.833 70.667 58.000 M78.702 51.292 L 78.667 53.167 79.375 53.139 L 80.083 53.111 79.464 53.046 L 78.844 52.981 78.791 51.199 L 78.737 49.417 78.702 51.292 M6.583 52.000 C 6.400 52.079,6.352 52.149,6.477 52.155 C 6.633 52.163,6.682 52.322,6.632 52.658 C 6.593 52.928,6.622 53.111,6.697 53.065 C 6.772 53.018,6.833 52.758,6.833 52.487 C 6.833 52.036,6.872 52.002,7.292 52.094 C 7.645 52.171,7.693 52.153,7.500 52.016 C 7.207 51.808,7.037 51.805,6.583 52.000 M8.700 55.533 C 8.389 55.844,8.458 56.107,9.017 56.744 C 9.724 57.549,10.667 57.492,10.667 56.646 C 10.667 55.875,9.193 55.041,8.700 55.533 M9.878 55.792 C 10.243 56.197,10.407 56.935,10.164 57.085 C 9.684 57.382,8.606 56.170,8.910 55.677 C 9.078 55.406,9.585 55.466,9.878 55.792 M11.778 56.778 C 11.717 56.839,11.667 57.126,11.667 57.415 C 11.667 58.590,13.357 59.199,13.467 58.064 C 13.543 57.285,12.253 56.303,11.778 56.778 M12.829 57.272 C 13.404 57.756,13.463 58.373,12.943 58.472 C 12.321 58.590,11.521 57.367,11.944 56.944 C 12.131 56.758,12.287 56.815,12.829 57.272 M14.600 58.315 C 14.029 58.945,15.331 60.403,16.098 59.992 C 16.560 59.745,16.592 59.548,16.269 58.926 C 15.804 58.029,15.094 57.769,14.600 58.315 M6.500 58.333 C 6.500 58.425,6.612 58.500,6.750 58.500 C 6.888 58.500,7.000 58.425,7.000 58.333 C 7.000 58.242,6.888 58.167,6.750 58.167 C 6.612 58.167,6.500 58.242,6.500 58.333 M16.073 59.102 C 16.135 59.347,16.114 59.620,16.026 59.707 C 15.562 60.171,14.417 58.918,14.840 58.409 C 15.123 58.068,15.927 58.519,16.073 59.102 M6.926 58.818 C 6.875 58.901,6.981 58.930,7.162 58.883 C 7.400 58.821,7.545 58.916,7.689 59.232 C 7.902 59.699,8.167 59.812,8.167 59.436 C 8.167 59.005,7.130 58.488,6.926 58.818 M8.616 59.607 C 8.725 59.652,8.769 59.808,8.712 59.955 C 8.644 60.132,8.675 60.181,8.805 60.101 C 9.105 59.916,9.036 59.498,8.708 59.513 C 8.548 59.520,8.506 59.563,8.616 59.607 M9.467 60.210 C 9.563 60.326,9.672 60.720,9.710 61.085 C 9.770 61.681,9.780 61.659,9.805 60.875 C 9.828 60.167,9.782 60.000,9.563 60.000 C 9.364 60.000,9.339 60.056,9.467 60.210 M78.667 67.950 C 78.621 71.910,78.640 75.093,78.710 75.023 C 78.780 74.953,78.817 71.713,78.793 67.823 L 78.750 60.750 78.667 67.950 M80.872 67.842 C 80.843 73.179,80.883 74.983,81.033 75.133 C 81.258 75.358,89.000 75.431,89.000 75.208 C 89.000 75.140,87.219 75.083,85.042 75.083 L 81.083 75.083 80.997 67.917 L 80.911 60.750 80.872 67.842 M6.450 62.605 C 6.222 62.833,6.338 63.022,6.673 62.970 C 6.860 62.941,7.014 62.842,7.015 62.750 C 7.018 62.547,6.612 62.443,6.450 62.605 M57.023 65.542 C 57.010 66.160,57.057 66.667,57.126 66.667 C 57.196 66.667,57.230 66.310,57.202 65.875 C 57.116 64.505,57.046 64.376,57.023 65.542 M8.700 66.200 C 8.384 66.516,8.459 66.767,9.061 67.405 C 10.176 68.586,11.218 67.838,10.242 66.557 C 9.792 65.969,9.093 65.807,8.700 66.200 M9.988 66.606 C 10.602 67.386,10.378 67.998,9.607 67.647 C 9.161 67.444,8.729 66.636,8.910 66.343 C 9.106 66.028,9.634 66.156,9.988 66.606 M11.778 67.444 C 11.717 67.506,11.667 67.800,11.667 68.099 C 11.667 69.234,13.360 69.829,13.467 68.731 C 13.543 67.952,12.253 66.969,11.778 67.444 M12.821 67.931 C 13.446 68.458,13.531 69.167,12.969 69.167 C 12.441 69.167,11.833 68.527,11.833 67.971 C 11.833 67.375,12.145 67.363,12.821 67.931 M14.597 68.985 C 14.003 69.641,15.363 71.097,16.168 70.666 C 16.659 70.403,16.572 69.872,15.933 69.233 C 15.286 68.586,15.005 68.534,14.597 68.985 M6.625 68.951 C 6.952 69.014,7.088 69.275,7.020 69.708 C 7.002 69.818,7.233 69.861,7.618 69.821 C 7.684 69.814,7.791 69.945,7.857 70.113 C 7.961 70.377,7.978 70.368,7.988 70.042 C 7.995 69.835,7.901 69.667,7.778 69.667 C 7.656 69.667,7.456 69.479,7.333 69.250 C 7.177 68.957,6.982 68.840,6.680 68.856 C 6.288 68.877,6.283 68.885,6.625 68.951 M15.708 69.232 C 16.059 69.498,16.274 70.414,16.021 70.570 C 15.607 70.826,14.495 69.580,14.758 69.154 C 14.894 68.934,15.367 68.973,15.708 69.232 M8.667 70.428 C 8.667 70.607,8.764 70.658,8.976 70.591 C 9.404 70.455,9.632 70.791,9.709 71.670 L 9.775 72.417 9.804 71.637 C 9.829 70.975,9.767 70.805,9.394 70.512 C 8.869 70.099,8.667 70.076,8.667 70.428 M7.056 73.240 C 7.119 73.404,7.007 73.501,6.699 73.548 C 6.266 73.614,6.268 73.618,6.758 73.642 C 7.239 73.665,7.667 73.426,7.667 73.133 C 7.667 73.060,7.509 73.000,7.316 73.000 C 7.078 73.000,6.994 73.078,7.056 73.240 M57.055 76.250 C 57.055 76.892,57.086 77.134,57.122 76.788 C 57.158 76.442,57.157 75.917,57.120 75.621 C 57.083 75.325,57.054 75.608,57.055 76.250 M8.827 76.805 C 8.385 77.163,8.471 77.592,9.112 78.233 C 9.967 79.088,10.942 78.614,10.450 77.583 C 10.059 76.763,9.318 76.408,8.827 76.805 M9.777 77.079 C 10.173 77.357,10.430 78.137,10.201 78.365 C 9.957 78.610,9.208 78.168,8.995 77.655 C 8.677 76.888,9.080 76.591,9.777 77.079 M11.778 78.111 C 11.717 78.172,11.667 78.467,11.667 78.766 C 11.667 79.901,13.360 80.495,13.467 79.397 C 13.543 78.618,12.253 77.636,11.778 78.111 M12.901 78.650 C 13.158 78.918,13.338 79.270,13.305 79.440 C 13.148 80.254,11.833 79.537,11.833 78.638 C 11.833 78.008,12.291 78.013,12.901 78.650 M14.672 79.629 C 14.200 80.011,14.457 80.677,15.272 81.180 C 16.417 81.888,16.929 80.896,15.933 79.900 C 15.282 79.249,15.171 79.225,14.672 79.629 M6.625 79.618 C 6.891 79.669,7.000 79.807,7.000 80.095 C 7.000 80.318,7.075 80.500,7.167 80.500 C 7.354 80.500,7.384 80.160,7.232 79.764 C 7.172 79.606,6.954 79.509,6.691 79.523 C 6.298 79.543,6.291 79.553,6.625 79.618 M15.626 79.825 C 16.264 80.357,16.332 81.207,15.732 81.138 C 15.150 81.072,14.549 80.093,14.859 79.719 C 15.094 79.436,15.173 79.447,15.626 79.825 M8.944 81.111 C 8.753 81.303,8.823 81.500,9.083 81.500 C 9.221 81.500,9.333 81.387,9.333 81.250 C 9.333 80.990,9.136 80.919,8.944 81.111 M10.001 81.731 C 10.002 81.833,10.190 82.003,10.418 82.109 C 10.778 82.276,10.833 82.262,10.833 82.004 C 10.833 81.818,10.676 81.675,10.417 81.626 C 10.174 81.579,10.001 81.624,10.001 81.731 M11.252 82.164 C 11.194 82.257,11.231 82.333,11.333 82.333 C 11.436 82.333,11.473 82.408,11.417 82.500 C 11.360 82.592,11.393 82.667,11.490 82.667 C 11.708 82.667,11.724 82.222,11.512 82.090 C 11.426 82.038,11.309 82.071,11.252 82.164 M12.111 82.611 C 11.919 82.803,11.990 83.000,12.250 83.000 C 12.387 83.000,12.500 82.887,12.500 82.750 C 12.500 82.490,12.303 82.419,12.111 82.611 M13.223 83.230 C 13.261 83.333,13.376 83.398,13.479 83.375 C 13.582 83.352,13.667 83.450,13.667 83.593 C 13.667 83.736,13.742 83.807,13.833 83.750 C 14.145 83.557,14.001 83.206,13.577 83.125 C 13.307 83.073,13.179 83.111,13.223 83.230 M14.433 83.641 C 14.375 83.734,14.409 83.860,14.508 83.922 C 14.765 84.080,14.930 83.863,14.716 83.649 C 14.596 83.530,14.503 83.527,14.433 83.641 M15.273 84.250 C 15.326 84.387,15.553 84.500,15.778 84.500 C 16.008 84.500,16.141 84.573,16.083 84.667 C 16.027 84.758,16.060 84.833,16.157 84.833 C 16.513 84.833,16.321 84.320,15.906 84.163 C 15.314 83.938,15.161 83.959,15.273 84.250 M16.746 84.937 C 16.894 85.085,17.057 85.165,17.108 85.114 C 17.256 84.966,17.002 84.667,16.728 84.667 C 16.511 84.667,16.513 84.703,16.746 84.937 M17.500 85.250 C 17.500 85.388,17.575 85.500,17.667 85.500 C 17.758 85.500,17.833 85.388,17.833 85.250 C 17.833 85.112,17.758 85.000,17.667 85.000 C 17.575 85.000,17.500 85.112,17.500 85.250 M18.501 85.731 C 18.502 85.833,18.690 86.003,18.918 86.109 C 19.278 86.276,19.333 86.262,19.333 86.004 C 19.333 85.818,19.176 85.675,18.917 85.626 C 18.674 85.579,18.501 85.624,18.501 85.731 M19.750 86.167 C 19.693 86.258,19.731 86.333,19.833 86.333 C 19.936 86.333,19.973 86.408,19.917 86.500 C 19.860 86.592,19.893 86.667,19.990 86.667 C 20.087 86.667,20.167 86.517,20.167 86.333 C 20.167 85.982,19.924 85.885,19.750 86.167 M20.616 86.607 C 20.482 86.740,20.633 87.000,20.843 87.000 C 20.929 87.000,21.000 86.888,21.000 86.750 C 21.000 86.492,20.803 86.419,20.616 86.607 M21.667 87.190 C 21.667 87.269,21.835 87.334,22.042 87.336 C 22.311 87.338,22.354 87.378,22.194 87.479 C 22.015 87.593,22.023 87.640,22.236 87.722 C 22.418 87.792,22.500 87.727,22.500 87.514 C 22.500 87.317,22.349 87.177,22.083 87.126 C 21.854 87.082,21.667 87.111,21.667 87.190 M22.833 87.667 C 22.833 87.758,22.927 87.834,23.042 87.836 C 23.183 87.838,23.169 87.895,23.000 88.015 C 22.778 88.172,22.778 88.184,23.000 88.124 C 23.345 88.030,23.426 87.500,23.096 87.500 C 22.951 87.500,22.833 87.575,22.833 87.667 M23.782 88.107 C 23.649 88.240,23.800 88.500,24.010 88.500 C 24.096 88.500,24.167 88.388,24.167 88.250 C 24.167 87.992,23.970 87.919,23.782 88.107 M24.833 88.655 C 24.833 88.753,24.950 88.833,25.093 88.833 C 25.236 88.833,25.307 88.908,25.250 89.000 C 25.193 89.092,25.222 89.167,25.314 89.167 C 25.488 89.167,25.743 88.849,25.642 88.760 C 25.441 88.582,24.833 88.504,24.833 88.655 M26.000 89.333 C 26.000 89.519,26.111 89.667,26.250 89.667 C 26.389 89.667,26.500 89.519,26.500 89.333 C 26.500 89.148,26.389 89.000,26.250 89.000 C 26.111 89.000,26.000 89.148,26.000 89.333 M28.167 90.095 C 28.167 90.148,28.279 90.303,28.417 90.440 C 28.639 90.663,28.667 90.652,28.667 90.345 C 28.667 90.149,28.558 90.000,28.417 90.000 C 28.279 90.000,28.167 90.043,28.167 90.095 M29.095 90.648 C 29.045 90.729,29.115 90.888,29.252 91.002 C 29.458 91.173,29.500 91.148,29.500 90.854 C 29.500 90.496,29.263 90.376,29.095 90.648 M30.167 91.149 C 30.167 91.250,30.310 91.333,30.486 91.333 C 30.662 91.333,30.843 91.427,30.890 91.542 C 30.940 91.666,30.979 91.633,30.987 91.458 C 30.994 91.298,30.931 91.167,30.847 91.167 C 30.763 91.167,30.575 91.121,30.430 91.066 C 30.285 91.010,30.167 91.047,30.167 91.149 M31.417 91.667 C 31.295 91.863,31.453 92.167,31.677 92.167 C 31.763 92.167,31.833 92.017,31.833 91.833 C 31.833 91.482,31.591 91.385,31.417 91.667 M32.261 92.149 C 32.210 92.231,32.281 92.341,32.418 92.394 C 32.569 92.452,32.667 92.393,32.667 92.245 C 32.667 91.975,32.406 91.914,32.261 92.149 M33.333 92.667 C 33.333 92.758,33.488 92.833,33.677 92.833 C 33.865 92.833,33.973 92.908,33.917 93.000 C 33.860 93.092,33.893 93.167,33.990 93.167 C 34.267 93.167,34.197 92.714,33.903 92.601 C 33.522 92.455,33.333 92.476,33.333 92.667 M34.632 93.113 C 34.797 93.179,34.802 93.253,34.653 93.433 C 34.500 93.617,34.516 93.667,34.730 93.667 C 34.889 93.667,35.000 93.530,35.000 93.333 C 35.000 93.122,34.893 93.005,34.708 93.013 C 34.523 93.022,34.495 93.058,34.632 93.113 M35.365 93.679 C 35.398 93.778,35.496 93.858,35.583 93.858 C 35.670 93.858,35.769 93.778,35.801 93.679 C 35.834 93.581,35.736 93.500,35.583 93.500 C 35.431 93.500,35.332 93.581,35.365 93.679 M36.585 94.169 C 36.643 94.263,36.760 94.296,36.845 94.243 C 36.930 94.190,37.000 94.264,37.000 94.407 C 37.000 94.550,37.075 94.667,37.167 94.667 C 37.436 94.667,37.358 94.212,37.070 94.101 C 36.675 93.950,36.467 93.979,36.585 94.169 M37.667 94.625 C 37.667 94.694,37.885 94.750,38.151 94.750 C 38.417 94.750,38.600 94.694,38.558 94.625 C 38.515 94.556,38.297 94.500,38.073 94.500 C 37.850 94.500,37.667 94.556,37.667 94.625 " stroke="none" fill="#8297fc" fill-rule="evenodd"></path></g></svg>