<svg id="svg" version="1.1" xmlns="http://www.w3.org/2000/svg" xmlns:xlink="http://www.w3.org/1999/xlink" width="400" height="69.41798941798942" viewBox="0, 0, 400,69.41798941798942"><g id="svgg"><path id="path0" d="M0.000 34.250 L 0.000 68.500 8.833 68.500 L 17.667 68.500 17.667 54.000 L 17.667 39.500 20.250 39.500 L 22.833 39.500 22.833 54.000 L 22.833 68.500 32.000 68.500 L 41.167 68.500 41.167 34.250 L 41.167 0.000 32.000 0.000 L 22.833 0.000 22.833 11.917 L 22.833 23.833 20.250 23.833 L 17.667 23.833 17.667 11.917 L 17.667 0.000 8.833 0.000 L 0.000 0.000 0.000 34.250 M56.483 0.497 C 56.080 0.770,55.689 0.995,55.615 0.997 C 55.168 1.007,52.466 3.490,51.440 4.833 C 50.715 5.783,49.667 7.425,49.667 7.611 C 49.667 7.670,49.483 8.106,49.258 8.581 C 49.034 9.056,48.815 9.625,48.772 9.847 C 48.729 10.069,48.575 10.700,48.429 11.249 C 47.784 13.676,47.754 14.698,47.755 33.917 C 47.755 53.363,47.807 54.927,48.506 56.766 C 48.593 56.996,48.704 57.406,48.752 57.678 C 48.860 58.289,50.478 61.648,50.834 62.000 C 50.881 62.046,51.138 62.383,51.407 62.750 C 53.444 65.533,56.526 67.589,60.621 68.896 L 61.991 69.333 68.643 69.333 L 75.295 69.333 77.085 68.753 C 78.069 68.434,78.959 68.109,79.062 68.031 C 79.166 67.953,79.512 67.790,79.833 67.668 C 80.327 67.481,81.601 66.693,83.066 65.667 C 83.674 65.241,85.500 63.378,85.500 63.184 C 85.500 63.083,85.567 63.000,85.648 63.000 C 85.798 63.000,87.173 60.958,87.332 60.500 C 87.379 60.362,87.560 59.987,87.735 59.667 C 89.397 56.609,89.753 51.100,89.611 30.667 C 89.488 13.168,89.329 11.316,87.632 7.722 C 86.537 5.403,84.295 2.782,82.250 1.432 C 81.608 1.008,81.004 0.598,80.906 0.520 C 80.277 0.017,79.869 -0.000,68.619 -0.000 L 57.217 -0.000 56.483 0.497 M101.479 0.713 C 100.872 1.100,100.160 1.567,99.896 1.750 C 99.227 2.215,97.500 4.030,97.500 4.268 C 97.500 4.376,97.404 4.501,97.286 4.547 C 97.099 4.618,96.025 6.612,95.921 7.080 C 95.901 7.173,95.841 7.362,95.790 7.500 C 94.666 10.483,94.280 20.184,95.156 23.417 C 95.355 24.150,95.576 25.012,95.648 25.333 C 95.720 25.654,95.941 26.232,96.139 26.618 C 96.338 27.004,96.500 27.405,96.500 27.510 C 96.500 28.542,99.860 32.430,102.000 33.875 C 102.914 34.491,103.921 35.216,104.000 35.314 C 104.046 35.370,104.202 35.492,104.347 35.583 C 105.157 36.096,106.595 37.068,106.667 37.152 C 106.712 37.206,106.948 37.362,107.191 37.500 C 107.433 37.637,108.071 38.048,108.607 38.412 C 109.144 38.775,109.702 39.150,109.847 39.245 C 109.993 39.339,110.547 39.717,111.080 40.083 C 111.613 40.450,112.259 40.878,112.517 41.034 C 112.774 41.190,113.128 41.453,113.304 41.617 C 113.479 41.782,114.098 42.254,114.678 42.667 C 117.923 44.974,118.742 46.973,118.637 52.333 L 118.583 55.083 118.000 56.167 C 117.116 57.808,115.429 58.402,113.828 57.634 C 112.408 56.954,112.167 55.669,112.167 48.803 L 112.167 43.500 103.647 43.500 L 95.126 43.500 95.209 48.208 C 95.372 57.483,96.292 61.081,99.273 64.101 C 100.900 65.750,104.561 68.047,106.166 68.428 C 106.304 68.460,107.017 68.677,107.750 68.910 L 109.083 69.333 116.000 69.329 L 122.917 69.325 124.083 68.909 C 124.725 68.681,125.400 68.470,125.583 68.440 C 125.933 68.383,127.620 67.653,128.333 67.250 C 128.563 67.121,129.062 66.856,129.442 66.663 C 129.823 66.470,130.266 66.167,130.426 65.989 C 130.587 65.812,130.802 65.667,130.904 65.667 C 131.135 65.667,132.667 64.214,132.667 63.994 C 132.667 63.906,132.760 63.830,132.875 63.827 C 133.369 63.812,134.928 60.791,135.281 59.167 C 135.410 58.571,135.639 57.521,135.789 56.833 C 136.141 55.222,136.201 46.614,135.873 44.667 C 134.877 38.744,133.822 36.354,130.926 33.460 C 129.917 32.451,128.200 31.000,128.016 31.000 C 127.916 31.000,127.833 30.941,127.833 30.869 C 127.833 30.796,127.301 30.365,126.650 29.910 C 125.999 29.455,125.257 28.915,125.001 28.708 C 124.745 28.502,124.459 28.333,124.365 28.333 C 124.271 28.333,124.169 28.271,124.139 28.194 C 124.063 28.002,121.755 26.500,121.537 26.500 C 121.440 26.500,121.336 26.444,121.306 26.375 C 121.218 26.177,120.280 25.559,119.872 25.429 C 119.667 25.364,119.500 25.253,119.500 25.182 C 119.500 25.111,119.294 24.960,119.042 24.847 C 118.314 24.518,115.626 22.817,115.158 22.389 C 114.923 22.175,114.671 22.000,114.596 22.000 C 113.844 22.000,112.302 19.428,112.049 17.750 C 111.373 13.275,112.193 10.342,114.262 9.829 C 116.938 9.165,117.657 10.689,117.663 17.043 L 117.667 20.336 126.125 20.293 L 134.583 20.250 134.630 18.323 C 134.690 15.846,134.259 9.664,133.950 8.583 C 133.819 8.125,133.610 7.375,133.484 6.917 C 133.358 6.458,133.179 6.028,133.086 5.961 C 132.993 5.894,132.972 5.837,133.040 5.836 C 133.899 5.818,129.233 1.000,128.357 1.000 C 128.265 1.000,128.088 0.897,127.962 0.772 C 127.173 -0.018,127.474 -0.000,114.633 0.005 L 102.583 0.009 101.479 0.713 M138.500 6.667 L 138.500 13.333 143.750 13.333 L 149.000 13.333 149.000 40.917 L 149.000 68.500 158.167 68.500 L 167.333 68.500 167.333 40.917 L 167.333 13.333 172.750 13.333 L 178.167 13.333 178.167 6.667 L 178.167 0.000 158.333 0.000 L 138.500 0.000 138.500 6.667 M190.404 0.524 C 189.952 0.812,189.188 1.301,188.705 1.611 C 187.123 2.626,184.344 5.706,183.883 6.955 C 183.823 7.117,183.600 7.530,183.387 7.872 C 183.174 8.214,183.000 8.630,183.000 8.797 C 183.000 8.964,182.932 9.171,182.850 9.258 C 182.617 9.503,182.193 10.881,182.101 11.689 C 182.056 12.089,181.921 13.204,181.801 14.167 C 181.492 16.648,181.486 49.318,181.794 51.750 C 181.910 52.667,182.045 53.883,182.094 54.453 C 182.296 56.799,183.445 60.293,184.714 62.423 C 185.147 63.148,186.406 64.508,187.283 65.196 C 187.789 65.592,188.298 66.007,188.415 66.117 C 188.607 66.299,189.873 67.041,190.500 67.339 C 190.637 67.405,191.074 67.625,191.471 67.830 C 191.867 68.035,193.021 68.457,194.034 68.768 L 195.876 69.333 202.845 69.333 L 209.813 69.333 210.969 68.917 C 211.604 68.688,212.198 68.500,212.289 68.500 C 212.817 68.500,216.809 66.320,217.050 65.899 C 217.123 65.771,217.284 65.667,217.406 65.667 C 217.666 65.667,220.584 62.847,221.179 62.022 C 222.214 60.584,223.248 58.078,223.501 56.393 C 223.595 55.764,223.790 54.575,223.933 53.750 C 224.122 52.666,224.219 50.622,224.282 46.375 L 224.368 40.500 215.192 40.500 L 206.016 40.500 205.966 47.958 L 205.917 55.417 205.447 56.372 C 204.711 57.872,203.015 58.382,201.417 57.583 C 199.828 56.789,199.807 56.463,199.871 32.917 C 199.934 9.443,199.837 10.501,201.986 9.857 C 203.029 9.545,205.167 9.888,205.167 10.368 C 205.167 10.472,205.271 10.675,205.398 10.820 C 205.918 11.412,206.000 12.826,206.000 21.175 L 206.000 29.500 215.179 29.500 L 224.358 29.500 224.293 22.292 C 224.211 13.315,223.757 9.982,222.223 7.119 C 222.086 6.863,221.886 6.488,221.778 6.285 C 221.099 5.005,218.101 1.840,217.562 1.835 C 217.459 1.834,217.286 1.727,217.178 1.597 C 217.070 1.467,216.466 1.054,215.837 0.680 L 214.692 0.000 202.958 0.000 L 191.224 0.000 190.404 0.524 M230.667 34.250 L 230.667 68.500 245.333 68.500 L 260.000 68.500 260.000 61.417 L 260.000 54.333 254.500 54.333 L 249.000 54.333 249.000 27.167 L 249.000 0.000 239.833 0.000 L 230.667 0.000 230.667 34.250 M270.742 0.636 C 268.924 1.755,267.747 2.749,266.563 4.167 C 265.347 5.623,265.437 5.499,264.922 6.427 C 264.671 6.879,264.405 7.325,264.332 7.417 C 263.433 8.538,262.604 12.619,262.335 17.250 C 262.121 20.930,262.121 46.737,262.335 50.417 C 262.620 55.322,263.441 59.108,264.516 60.475 C 264.691 60.697,264.833 60.965,264.833 61.070 C 264.833 61.176,265.055 61.522,265.327 61.840 C 265.598 62.157,265.825 62.492,265.831 62.583 C 265.879 63.290,270.872 67.500,271.662 67.500 C 271.729 67.500,272.114 67.673,272.517 67.885 C 272.920 68.097,274.010 68.509,274.939 68.802 L 276.629 69.333 283.270 69.333 L 289.911 69.333 291.247 68.907 C 293.045 68.333,295.072 67.391,296.397 66.512 C 296.753 66.276,297.241 65.954,297.481 65.795 C 298.112 65.378,300.667 62.655,300.667 62.400 C 300.667 62.281,300.772 62.123,300.901 62.050 C 301.155 61.906,302.667 59.091,302.667 58.762 C 302.667 58.652,302.816 58.253,302.999 57.875 C 303.977 55.850,304.237 50.813,304.237 33.833 C 304.237 13.483,304.071 11.626,301.869 7.203 C 301.537 6.536,301.130 5.845,300.966 5.668 C 300.801 5.492,300.667 5.296,300.667 5.234 C 300.667 5.083,298.817 2.956,298.528 2.774 C 298.403 2.696,298.145 2.452,297.954 2.233 C 297.763 2.013,297.521 1.833,297.416 1.833 C 297.311 1.833,297.049 1.646,296.833 1.417 C 296.618 1.187,296.381 1.000,296.307 1.000 C 296.232 1.000,295.806 0.775,295.359 0.500 L 294.546 0.000 283.148 0.008 L 271.750 0.016 270.742 0.636 M310.499 24.708 C 310.498 51.886,310.578 55.330,311.271 57.667 C 311.726 59.204,312.901 61.692,313.373 62.119 C 313.534 62.265,313.667 62.470,313.667 62.575 C 313.667 62.679,314.197 63.287,314.846 63.924 C 315.494 64.562,316.148 65.215,316.299 65.375 C 316.450 65.535,316.646 65.667,316.735 65.667 C 316.823 65.667,317.050 65.811,317.239 65.987 C 317.669 66.387,321.407 68.265,322.083 68.421 C 322.358 68.485,323.094 68.716,323.718 68.935 C 324.846 69.331,324.897 69.333,331.802 69.329 L 338.750 69.325 339.750 68.913 C 340.300 68.687,340.850 68.501,340.971 68.501 C 341.953 68.497,345.388 66.320,347.250 64.520 C 347.873 63.918,349.500 61.779,349.500 61.562 C 349.500 61.496,349.606 61.325,349.736 61.180 C 350.256 60.602,351.192 58.108,351.421 56.695 C 351.946 53.450,351.999 50.552,352.000 25.375 L 352.000 0.000 342.833 0.000 L 333.667 0.000 333.667 26.713 C 333.667 53.523,333.629 55.417,333.076 56.743 C 332.566 57.962,330.867 58.326,329.773 57.450 C 328.767 56.644,328.794 57.425,328.717 27.292 L 328.648 0.000 319.574 0.000 L 310.500 0.000 310.499 24.708 M358.667 34.250 L 358.667 68.500 372.507 68.500 C 386.343 68.500,388.253 68.436,390.750 67.892 C 391.392 67.752,392.246 67.569,392.649 67.486 C 393.052 67.403,393.464 67.271,393.566 67.194 C 393.667 67.116,394.066 66.930,394.453 66.780 C 396.340 66.047,398.161 64.295,399.187 62.222 L 399.917 60.750 399.960 34.895 L 400.003 9.040 399.502 8.086 C 399.226 7.562,399.000 7.047,399.000 6.941 C 398.999 6.429,396.042 2.838,395.618 2.834 C 395.545 2.834,395.333 2.690,395.145 2.515 C 394.614 2.021,392.518 1.069,390.725 0.509 L 389.097 -0.000 373.882 -0.000 L 358.667 0.000 358.667 34.250 M69.534 9.863 C 71.302 10.393,71.250 9.677,71.250 33.500 C 71.250 56.135,71.243 56.308,70.227 57.276 C 68.368 59.050,66.360 57.778,66.145 54.692 C 65.971 52.194,65.981 14.930,66.156 12.966 C 66.395 10.297,67.523 9.261,69.534 9.863 M284.201 9.863 C 284.692 10.011,284.934 10.211,285.165 10.663 C 285.870 12.045,285.880 12.318,285.953 31.417 C 286.044 55.412,285.957 56.805,284.327 57.623 C 282.269 58.656,281.021 57.648,280.659 54.661 C 280.329 51.936,280.528 12.753,280.878 11.725 C 281.470 9.982,282.560 9.372,284.201 9.863 M380.000 11.609 C 381.147 11.926,381.564 12.309,382.040 13.486 L 382.417 14.417 382.417 32.833 C 382.417 52.900,382.415 52.937,381.454 54.960 C 381.144 55.613,378.725 56.490,377.208 56.499 C 377.043 56.500,377.000 51.853,377.000 33.817 L 377.000 11.134 378.042 11.245 C 378.615 11.306,379.496 11.469,380.000 11.609 " stroke="none" fill="#4464fc" fill-rule="evenodd"></path><path id="path1" d="" stroke="none" fill="#4864fc" fill-rule="evenodd"></path><path id="path2" d="" stroke="none" fill="#4864fc" fill-rule="evenodd"></path><path id="path3" d="" stroke="none" fill="#4864fc" fill-rule="evenodd"></path><path id="path4" d="" stroke="none" fill="#4864fc" fill-rule="evenodd"></path></g></svg>